<?xml version="1.0" encoding="UTF-8" standalone="no"?>
<svg
   version="1.1"
   viewBox="0 0 1600 1448"
   width="1280"
   height="1280"
   id="svg994"
   sodipodi:docname="logo-solo.svg"
   inkscape:version="1.3.2 (091e20e, 2023-11-25, custom)"
   xmlns:inkscape="http://www.inkscape.org/namespaces/inkscape"
   xmlns:sodipodi="http://sodipodi.sourceforge.net/DTD/sodipodi-0.dtd"
   xmlns="http://www.w3.org/2000/svg"
   xmlns:svg="http://www.w3.org/2000/svg">
  <defs
     id="defs998" />
  <sodipodi:namedview
     id="namedview996"
     pagecolor="#ffffff"
     bordercolor="#666666"
     borderopacity="1.0"
     inkscape:pageshadow="2"
     inkscape:pageopacity="0.0"
     inkscape:pagecheckerboard="0"
     showgrid="false"
     inkscape:zoom="0.25429688"
     inkscape:cx="605.5914"
     inkscape:cy="890.69124"
     inkscape:window-width="1366"
     inkscape:window-height="745"
     inkscape:window-x="-8"
     inkscape:window-y="-8"
     inkscape:window-maximized="1"
     inkscape:current-layer="svg994"
     inkscape:showpageshadow="2"
     inkscape:deskcolor="#d1d1d1" />
  <g
     id="g2343"
     transform="matrix(1.5579773,0,0,1.4269476,-436.05929,-46.444591)">
    <path
       transform="translate(955,112)"
       d="m 0,0 h 18 l 11,4 6,4 5,5 5,8 2,6 v 10 l -3,10 -9,17 -10,13 -13,15 -27,27 1,10 3,19 v 73 l -1,126 -6,-2 -2,3 -1,-2 v -6 l -3,3 h -2 v 2 l -9,9 -4,-4 -1,-7 v -13 l -2,-12 -1,-12 -3,-13 h -2 l -1,72 -1,4 -83,1 1,38 h 35 l 47,1 1,2 -1,14 -1,1 -82,1 v 39 h 81 l -1,7 -7,21 -8,15 -8,11 -9,10 -8,8 -14,10 -16,8 -16,6 -11,3 -7,1 h -28 l -16,-3 -15,-5 -16,-8 -11,-7 -10,-8 v -2 l -4,-2 -3,-3 v -2 h -2 l -11,-15 -9,-17 -6,-16 -2,-8 v -4 l 79,-1 -1,-39 h -79 l -1,-1 v -16 l 1,-1 h 80 l -1,-37 -9,-1 -71,-1 v -71 l 8,-5 8,-4 6,1 9,7 14,8 14,7 21,7 26,5 14,1 h 13 l 13,-2 18,-4 20,-7 16,-8 12,-7 16,-13 7,-6 6,-7 v -16 l -1,-20 -9,-11 v -3 l -3,-1 -2,5 -8,12 -13,15 -12,10 -18,11 -16,7 -15,4 -10,2 h -20 l -20,-3 -16,-5 -17,-8 v -3 l 27,-15 22,-13 20,-12 17,-11 33,-22 11,-8 17,-12 1,-2 -11,7 -7,3 -3,3 -9,3 -10,2 -2,-4 h -2 l -2,-4 -10,-5 -1,-3 3,-4 h -3 l -6,-1 -18,12 -19,12 -18,11 -20,12 -17,10 -22,12 -4,2 h -3 l -6,-9 v -2 h -2 l 1,4 h -2 l 1,5 v 3 l -7,1 h -6 l -4,12 -20,9 -17,6 h -2 v -2 l 2,-1 -2,-3 v -21 l 3,-5 14,-13 11,-9 2,-4 -11,-13 -7,-8 -4,-4 h -9 v -42 l 6,-25 8,-21 9,-17 9,-13 11,-13 6,-7 14,-11 13,-9 21,-11 19,-7 29,-6 h 18 l 25,2 23,6 25,11 9,5 7,-1 25,-11 20,-7 25,-7 z"
       fill="#f88d35"
       id="path4" />
    <path
       transform="translate(944,275)"
       d="m 0,0 h 1 v 62 l -1,231 -2,20 -4,17 -8,20 -8,15 -8,12 -7,9 -11,12 -11,10 -17,12 -15,8 -15,6 -21,6 -17,3 -21,1 -24,-3 -23,-6 -19,-8 -15,-8 -11,-8 -14,-12 -7,-7 -9,-11 -9,-13 -9,-16 -6,-14 -6,-21 -2,-11 -1,-11 -1,-93 v -52 l -23,6 -12,2 h -9 l -14,-3 -10,-6 -8,-10 -3,-9 v -9 l 4,-13 8,-14 12,-16 15,-16 21,-21 8,-7 10,-8 2,-3 8,-1 11,11 7,9 5,6 -2,4 -10,9 -8,7 -9,8 -1,3 v 21 l 2,4 h -3 v 2 l 26,-10 13,-6 2,-10 4,-2 h 11 l -1,-8 1,-4 h 2 l 6,9 v 2 l 17,-8 24,-14 22,-13 26,-16 25,-16 7,-5 5,1 4,-1 v 2 l 2,1 -4,4 1,2 10,5 1,4 h 2 l 2,3 10,-2 9,-3 h 2 l 2,-4 10,-4 5,-4 h 2 l -1,3 -17,12 -15,11 -11,7 -18,12 -22,14 -29,17 -24,14 -11,6 4,3 18,8 15,4 16,2 h 20 l 22,-5 17,-7 14,-8 12,-9 9,-8 9,-11 10,-15 3,-3 2,2 v 3 l 9,11 1,30 v 6 l -8,9 -8,7 -14,11 -17,10 -19,8 -19,6 -14,3 -10,1 h -13 l -20,-2 -24,-5 -19,-7 -16,-8 -16,-10 -5,-4 -6,1 -13,7 -1,71 h 71 l 9,1 1,1 v 37 l -80,1 v 16 l 79,1 1,11 v 28 l -5,1 h -74 l 4,14 6,16 8,15 9,12 1,3 h 2 l 5,6 11,9 10,7 16,8 14,5 12,3 7,1 h 28 l 15,-3 17,-6 16,-8 12,-8 12,-11 9,-10 7,-10 9,-17 8,-26 h -81 v -39 l 11,-1 71,-1 1,-15 -53,-1 h -29 l -1,-1 v -38 l 9,-1 h 74 l 1,-77 3,1 4,13 1,12 2,16 v 13 l 3,6 3,-1 4,-6 3,-1 v -2 h 2 l 1,-3 h 2 l 1,6 3,-4 5,5 V 58 Z"
       fill="#fbca59"
       id="path6" />
    <path
       transform="translate(569,537)"
       d="m 0,0 9,1 7,4 5,6 2,5 3,31 4,21 9,27 9,19 12,19 13,16 14,14 14,11 15,10 23,12 19,7 23,6 16,2 h 33 l 21,-3 17,-4 23,-8 21,-11 15,-10 10,-8 14,-12 10,-11 12,-16 11,-19 8,-17 7,-22 4,-18 2,-17 1,-19 3,-7 9,-7 5,-2 h 7 l 10,5 6,8 1,3 v 20 l -3,23 -5,23 -7,21 -7,16 -11,21 -10,15 -11,14 -15,16 -9,9 -11,9 -14,10 -18,11 -23,11 -27,9 -21,5 -20,3 v 32 l -1,94 h 129 l 10,1 8,6 5,8 v 10 l -3,6 -5,5 -5,3 -10,1 -277,-1 -8,-5 -5,-7 -1,-9 3,-8 5,-5 7,-5 h 109 l -1,-29 -1,-98 -13,-1 -20,-4 -24,-7 -20,-8 L 96,220 75,206 62,195 49,183 42,175 31,162 21,148 11,131 0,108 -7,89 l -6,-24 -4,-27 -1,-21 3,-7 8,-7 z"
       fill="#fcca59"
       id="path8" />
    <path
       transform="translate(903,384)"
       d="m 0,0 h 2 v 97 l -83,1 1,38 h 35 l 47,1 1,2 -1,14 -1,1 -82,1 v 39 H 0 l -1,7 -7,21 -8,15 -8,11 -9,10 -8,8 -14,10 -16,8 -16,6 -11,3 -7,1 h -28 l -16,-3 -15,-5 -16,-8 -11,-7 -10,-8 v -2 l -4,-2 -3,-3 v -2 h -2 l -11,-15 -9,-17 -6,-16 -2,-8 v -4 l 79,-1 -1,-39 h -79 l -1,-1 v -16 l 1,-1 h 80 l -1,-37 -9,-1 -71,-1 V 26 l 8,-5 8,-4 6,1 9,7 14,8 14,7 21,7 26,5 14,1 h 13 l 13,-2 18,-4 20,-7 16,-8 12,-7 16,-13 7,-6 z"
       fill="#082b77"
       id="path10" />
    <path
       transform="translate(809,280)"
       d="M 0,0 5,1 9,0 v 2 l 2,1 -4,4 1,2 10,5 1,4 h 2 l 2,3 10,-2 9,-3 h 2 l 2,-4 10,-4 5,-4 h 2 L 62,7 45,19 30,30 19,37 1,49 l -22,14 -29,17 -24,14 -11,6 4,3 18,8 15,4 16,2 h 20 l 22,-5 17,-7 14,-8 12,-9 9,-8 9,-11 10,-15 3,-3 2,2 v 3 l 9,11 1,30 v 6 l -8,9 -8,7 -14,11 -17,10 -19,8 -19,6 -14,3 -10,1 h -13 l -20,-2 -24,-5 -19,-7 -16,-8 -16,-10 -5,-4 -6,1 -16,8 -31,12 -6,1 v 53 h -1 v -52 l -23,6 -12,2 h -9 l -14,-3 -10,-6 -8,-10 -3,-9 v -9 l 4,-13 8,-14 12,-16 15,-16 21,-21 8,-7 10,-8 2,-3 8,-1 11,11 7,9 5,6 -2,4 -10,9 -8,7 -9,8 -1,3 v 21 l 2,4 h -3 v 2 l 26,-10 13,-6 2,-10 4,-2 h 11 l -1,-8 1,-4 h 2 l 6,9 v 2 l 17,-8 24,-14 22,-13 26,-16 25,-16 z"
       fill="#fbca59"
       id="path12" />
    <path
       transform="translate(783,156)"
       d="m 0,0 18,2 14,3 21,7 6,3 v 2 l 5,1 v 2 l 5,1 13,11 12,12 12,17 -1,5 -17,14 -16,12 -13,10 -14,10 -20,14 -17,11 -19,12 -18,11 -20,12 -17,10 -22,12 -4,2 h -3 l -9,-14 -8,-17 -5,-16 -2,-11 v -30 l 4,-19 6,-16 8,-15 9,-12 9,-10 11,-10 14,-9 15,-7 19,-6 13,-3 z"
       fill="#52710a"
       id="path14" />
    <path
       transform="translate(757,544)"
       d="m 0,0 33,1 h 9 l 2,-1 h 13 l 4,5 2,4 v 12 l 1,4 v 9 h 82 l -1,7 -7,21 -8,15 -8,11 -9,10 -8,8 -14,10 -16,8 -16,6 -11,3 -7,1 H 13 l -16,-3 -15,-5 -16,-8 -11,-7 -10,-8 v -2 l -4,-2 -3,-3 v -2 h -2 l -11,-15 -9,-17 -6,-16 -2,-8 v -4 l 79,-1 V 14 l 2,-4 h 2 l 1,-5 5,-3 h 3 z"
       fill="#1045c3"
       id="path16" />
    <path
       transform="translate(661,410)"
       d="m 0,0 h 2 v 71 h 71 l 9,1 1,1 v 37 l -80,1 v 16 l 79,1 1,11 v 28 l -5,1 H 4 l 1,10 -2,2 -4,1 1,9 -4,-2 -1,2 -1,-3 -3,9 -1,4 -10,-14 -2,3 -3,-8 -3,-9 v -2 l -2,1 -1,8 1,7 h -3 l -3,-15 -1,-11 V 14 l 19,-7 z"
       fill="#fcb450"
       id="path20" />
    <path
       transform="translate(944,275)"
       d="m 0,0 h 1 v 62 l -1,231 -1,2 -2,13 -6,3 h -2 l -3,9 -6,12 -4,-2 -1,-2 -7,1 v -2 h -2 l -1,-4 2,-5 2,-9 1,-5 -1,-2 h 10 l 1,-4 h -18 l -4,1 v 2 h -73 v -3 l -5,-1 -2,-1 v -32 l 11,-1 71,-1 1,-15 -53,-1 h -29 l -1,-1 v -38 l 9,-1 h 74 l 1,-77 3,1 4,13 1,12 2,16 v 13 l 3,6 3,-1 4,-6 3,-1 v -2 h 2 l 1,-3 h 2 l 1,6 3,-4 5,5 V 58 Z"
       fill="#fcb550"
       id="path22" />
    <path
       transform="translate(656,915)"
       d="m 0,0 h 276 l 10,1 8,6 5,8 v 10 l -3,6 -5,5 -5,3 -10,1 -277,-1 -8,-5 -5,-7 -1,-9 3,-8 5,-5 z"
       fill="#f68c34"
       id="path24" />
    <path
       transform="translate(903,384)"
       d="M 0,0 H 2 V 92 H 1 l -2,-16 -6,-4 -1,-3 -8,1 -5,3 -23,3 -8,2 -9,1 -32,1 -14,1 -4,1 h -41 l -22,-2 h -11 l -29,2 -9,-1 -6,-5 v -2 l -7,1 -2,2 -1,-1 -1,-32 V 26 l 8,-5 8,-4 6,1 9,7 14,8 14,7 21,7 26,5 14,1 h 13 l 13,-2 18,-4 20,-7 16,-8 12,-7 16,-13 7,-6 z"
       fill="#07235f"
       id="path30" />
    <path
       transform="translate(902,262)"
       d="m 0,0 h 2 l 1,16 -1,16 -4,18 -6,16 -6,11 -8,11 -12,14 -12,10 -18,11 -16,7 -15,4 -10,2 h -20 l -20,-3 -16,-5 -17,-8 v -3 l 27,-15 22,-13 20,-12 17,-11 33,-22 11,-8 18,-13 13,-10 14,-11 z"
       fill="#51710a"
       id="path32" />
    <path
       transform="translate(727,172)"
       d="m 0,0 5,1 -4,8 -5,5 -7,17 -5,18 -3,20 v 30 l 3,17 7,20 10,19 2,3 -9,6 -26,14 -4,2 h -3 l -9,-14 -8,-17 -5,-16 -2,-11 V 92 l 4,-19 6,-16 8,-15 9,-12 9,-10 11,-10 14,-9 z"
       fill="#434347"
       id="path42" />
    <path
       transform="translate(757,544)"
       d="m 0,0 33,1 h 9 l 2,-1 h 13 l 4,5 2,4 v 12 l 1,4 v 9 h 82 l -1,4 -1,-1 h -40 l -9,1 -16,6 -1,2 -9,2 -5,2 H 56 L 42,54 H 21 l -6,1 -27,-1 h -28 l -1,2 -11,1 h -6 l -1,1 h -12 l -3,-4 -3,-6 v -7 l -7,-2 h -2 l 2,8 -1,7 h -2 l -5,-16 v -4 l 79,-1 V 14 l 2,-4 h 2 l 1,-5 5,-3 h 3 z"
       fill="#0b3baa"
       id="path50" />
    <path
       transform="translate(642,929)"
       d="m 0,0 h 2 l 4,4 9,1 h 5 l 6,2 32,1 4,1 1,-2 16,1 h 18 l 23,-1 h 71 l 5,1 h 7 l 3,-1 12,1 5,-1 8,1 2,-1 3,1 5,-1 3,1 7,-1 11,1 2,-1 27,1 1,-2 h 6 l 5,-3 8,-1 2,-1 v 10 l -3,6 -5,5 -5,3 -10,1 L 13,25 5,20 0,13 -1,4 Z"
       fill="#fcb551"
       id="path58" />
    <path
       transform="translate(569,537)"
       d="m 0,0 9,1 7,4 5,6 2,5 3,31 4,21 9,27 9,19 12,19 -1,3 v -2 h -6 v -3 l -5,-2 -5,1 -5,3 -4,2 -6,-1 -5,-3 v -2 l -4,-2 -2,-3 -9,1 -8,-17 -7,-19 -6,-24 -4,-27 -1,-21 3,-7 8,-7 z"
       fill="#f98e36"
       id="path60" />
    <path
       transform="translate(992,537)"
       d="m 0,0 h 7 l 10,5 6,8 1,3 v 20 l -3,23 -5,23 -7,21 -7,16 -3,3 -5,1 -5,5 h -2 l -2,5 -8,2 -1,-4 -6,2 -5,-1 v -2 l -6,-2 2,-7 -2,-5 3,-9 7,-15 7,-22 4,-18 2,-17 1,-19 3,-7 9,-7 z"
       fill="#f98e36"
       id="path64" />
    <path
       transform="translate(809,280)"
       d="M 0,0 5,1 9,0 v 2 l 2,1 -4,4 1,2 10,5 1,4 h 2 l 2,3 10,-2 9,-3 h 2 l 2,-4 10,-4 5,-4 h 2 L 62,7 45,19 30,30 19,37 1,49 -21,63 -46,78 h -2 v -2 l -15,4 -13,5 -12,6 -6,-2 -9,-5 h -9 l 1,-5 16,-12 4,-6 -4,-2 17,-10 20,-12 26,-16 25,-16 z"
       fill="#fbb44f"
       id="path66" />
    <path
       transform="translate(778,750)"
       d="m 0,0 h 11 l 6,3 7,7 2,5 v 56 l -2,59 h -1 l -1,-11 h -2 l -2,-4 v -3 h -2 l -1,-1 -1,3 -3,-1 H 0 l -3,-1 1,-4 -4,-1 -5,7 -2,-3 -1,-72 V 14 l 5,-8 6,-5 z"
       fill="#f98c35"
       id="path76" />
    <path
       transform="translate(951,650)"
       d="m 0,0 2,2 -1,3 2,4 -3,6 4,1 3,3 10,-1 2,1 1,2 6,-2 2,-4 8,-7 h 5 l -2,6 -10,18 -8,11 -10,13 -15,16 -9,9 -11,9 -5,2 -11,-2 -12,6 h -2 v -2 h -7 l -7,-4 -2,-5 -6,2 v -2 l 5,-1 v -2 h 3 v -2 l 4,-2 -3,-4 v -4 l 12,-8 10,-8 14,-12 10,-11 12,-16 z"
       fill="#fcb551"
       id="path80" />
    <path
       transform="translate(882,721)"
       d="M 0,0 H 2 L 6,8 1,9 v 2 h -3 v 2 l -5,1 h 4 2 l 3,5 6,3 7,1 v 2 l 14,-7 11,2 v 3 l -17,11 -14,8 -19,9 -27,9 -21,5 -20,3 -1,-24 -3,-6 -9,-8 v -2 l 29,-4 17,-4 23,-8 21,-11 z"
       fill="#fcca59"
       id="path84" />
    <path
       transform="translate(582,660)"
       d="m 0,0 5,1 5,5 v 2 l 5,2 7,1 5,-4 4,-2 5,1 4,2 v 3 h 8 l 11,14 15,15 14,11 15,10 7,4 2,3 4,2 -1,4 -15,-3 -6,-3 h -4 l 4,2 -1,1 4,3 2,3 -4,3 L 77,81 63,76 50,69 43,67 36,60 29,52 18,39 8,25 -2,8 -4,2 Z"
       fill="#fcb551"
       id="path86" />
    <path
       transform="translate(630,297)"
       d="m 0,0 4,2 9,9 7,9 5,6 -2,4 -10,9 -8,7 -9,8 -1,3 v 21 l 2,4 -4,1 V 57 l -6,5 -9,11 -6,6 h -2 l 1,-11 h -2 l -1,3 h -3 v 2 h -3 v 2 l -3,-1 v -2 l -8,-6 -2,-3 -1,-3 h 2 l 1,-7 4,-4 h -2 l -1,-5 9,-10 14,-14 7,-8 10,-8 2,-3 z"
       fill="#fcb551"
       id="path102" />
    <path
       transform="translate(727,172)"
       d="m 0,0 5,1 -4,8 -5,5 -7,17 -5,18 -3,20 v 30 l 3,17 7,20 10,19 2,3 -9,6 -22,12 -1,-2 -1,-4 -1,-2 h 2 l -9,-9 -7,-15 -3,-11 -1,-6 -1,-15 1,-9 2,-12 3,-7 2,-8 -1,-5 1,-2 h 4 l -1,9 3,7 2,8 4,3 v 7 l 3,11 5,12 h 2 v -12 l -2,-9 V 53 l 2,-7 2,-11 4,-9 4,-10 V 11 L -5,6 -7,4 Z"
       fill="#424341"
       id="path108" />
    <path
       transform="translate(904,537)"
       d="m 0,0 h 20 l 1,1 v 16 l -1,6 -13,1 -24,1 -23,2 h -22 l -12,-2 -2,-1 v -2 h -6 V 2 l 11,-1 z"
       fill="#f88c34"
       id="path116" />
    <path
       transform="translate(663,537)"
       d="m 0,0 80,1 1,11 V 38 H 80 L 79,22 68,24 H 41 l -3,1 H 26 l -12,1 -28,-2 -7,-1 -1,-1 V 1 Z"
       fill="#f88c34"
       id="path122" />
    <path
       transform="translate(893,331)"
       d="m 0,0 2,2 v 3 l 9,11 1,30 v 6 l -6,5 -11,4 -16,8 -13,3 -3,-3 -11,-5 1,-5 -5,-3 -1,-4 16,-10 15,-13 9,-11 10,-15 z"
       fill="#fcb450"
       id="path128" />
    <path
       transform="translate(905,480)"
       d="m 0,0 h 18 l 2,1 v 20 l -2,1 -26,1 -13,1 h -5 l -1,1 h -7 l -4,1 h -20 l -13,-1 -1,-3 -9,-2 -2,-3 V 2 l 9,-1 z"
       fill="#f88c34"
       id="path132" />
    <path
       transform="translate(662,479)"
       d="m 0,0 1,2 h 71 l 9,1 1,1 v 20 l -2,-3 -12,3 -22,1 h -5 l -1,-1 -2,2 H 10 L -4,25 -19,23 -21,18 V 3 l 1,-1 H 0 Z"
       fill="#f88b34"
       id="path138" />
    <path
       transform="translate(1026,80)"
       d="m 0,0 h 10 l 8,3 7,5 6,10 2,9 -3,10 -4,6 -7,6 -6,3 -11,1 -9,-3 -10,-9 -4,-9 V 19 l 4,-8 7,-7 z"
       fill="#fcb551"
       id="path148" />
    <path
       transform="translate(802,843)"
       d="M 0,0 H 1 V 72 H -37 V 18 l 2,2 5,-7 1,2 h 3 l -1,4 h 16 l 1,-1 1,-2 1,3 h 2 l 2,7 h 2 l 1,2 z"
       fill="#fcb551"
       id="path156" />
    <path
       transform="translate(756,361)"
       d="m 0,0 h 3 v 2 l 4,2 14,9 16,8 21,7 3,3 -1,2 -19,4 H 21 L 1,34 -15,29 -32,21 V 18 L -5,3 Z"
       fill="#414241"
       id="path168" />
    <path
       transform="translate(1026,80)"
       d="m 0,0 h 10 l 8,3 7,5 3,4 v 6 l -3,1 v 2 l -4,2 1,2 H 14 L 6,27 -5,25 -16,19 -17,18 V 13 L -6,2 Z"
       fill="#f98e36"
       id="path238" />
    <path
       transform="translate(661,410)"
       d="m 0,0 2,1 -3,3 -2,-1 1,3 -4,9 -3,28 2,10 1,2 -2,7 h -2 v -2 l -6,-1 -3,-3 -1,-13 -1,-4 -3,-16 -8,-3 -3,-5 -1,2 -1,-3 19,-7 z"
       fill="#f88c34"
       id="path240" />
    <path
       transform="translate(873,523)"
       d="m 0,0 h 31 v 11 l 1,3 h -79 v -1 l 10,-1 5,-4 14,-4 10,-3 z"
       fill="#0b3bab"
       id="path246" />
    <path
       transform="translate(949,155)"
       d="m 0,0 h 5 l -2,4 -8,10 -22,24 -5,-5 -8,-11 -4,-5 V 15 L -17,5 Z"
       fill="#fdfffe"
       id="path250" />
    <path
       transform="translate(742,380)"
       d="m 0,0 5,3 1,3 5,-1 3,-1 17,3 9,1 1,-2 11,-1 8,2 2,6 h 2 l 1,-4 h 7 l 3,3 -1,2 -19,4 H 35 L 15,15 -1,10 -6,8 V 6 l 2,-2 1,-3 3,2 z"
       fill="#414249"
       id="path254" />
    <path
       transform="translate(621,354)"
       d="m 0,0 h 2 l 1,28 -8,3 -18,5 -6,1 v -4 l 9,-10 9,-11 z"
       fill="#fdfffe"
       id="path276" />
    <path
       transform="translate(683,528)"
       d="M 0,0 H 23 L 51,2 55,5 54,9 39,10 -8,9 -9,4 -6,2 h 6 z"
       fill="#0a3bab"
       id="path292" />
    <path
       transform="translate(988,437)"
       d="m 0,0 h 2 l 2,10 4,4 12,5 1,2 L 8,25 5,28 3,39 H 0 l -3,-9 -8,-7 -9,-1 1,-3 10,-4 5,-5 3,-5 z"
       fill="#fab650"
       id="path312" />
    <path
       transform="translate(531,315)"
       d="m 0,0 3,1 3,11 5,4 11,3 1,2 -14,5 -3,4 -3,9 H 0 l -2,-9 -5,-5 -10,-3 4,-4 8,-3 3,-4 z"
       fill="#fab750"
       id="path316" />
    <path
       transform="translate(1057,101)"
       d="m 0,0 2,4 -2,10 -5,8 -7,6 -6,3 -11,1 -9,-3 -10,-9 -3,-6 1,-3 2,5 16,4 h 16 l 13,-3 1,-5 z"
       fill="#fccb59"
       id="path324" />
    <path
       transform="translate(673,950)"
       d="m 0,0 4,1 23,1 h 216 l 17,-1 6,-1 v 2 h 5 L 269,4 259,5 -18,4 -20,2 h 11 z"
       fill="#fccb59"
       id="path332" />
    <path
       transform="translate(681,216)"
       d="M 0,0 H 3 V 2 H 1 l -2,9 -5,10 -3,12 -3,5 v 9 l -2,12 v 9 l 2,19 5,17 4,9 2,5 h 2 l 2,9 h 2 l 1,4 -2,1 -9,-16 -7,-17 -4,-15 -1,-6 V 48 l 4,-19 6,-16 z"
       fill="#424342"
       id="path338" />
    <path
       transform="translate(739,510)"
       d="M 0,0 2,1 1,3 h 2 l 1,-2 1,9 -80,1 -2,1 -2,-1 -19,-1 1,-5 h 7 l 9,1 h 35 l 17,2 h 14 l 4,-1 h 8 V 3 L -5,2 Z"
       fill="#fbca59"
       id="path350" />
    <path
       transform="translate(742,571)"
       d="m 0,0 2,4 v 2 l -5,1 h -75 v 2 l -6,-2 -15,-1 -1,-4 5,-1 h 8 l 11,2 V 5 L -9,4 -2,3 Z"
       fill="#efc14d"
       id="path394" />
    <path
       transform="translate(1012,404)"
       d="m 0,0 3,1 2,7 7,4 v 4 l -8,4 -2,5 -3,-1 -4,-6 -7,-3 v -3 l 8,-4 z"
       fill="#fbbb52"
       id="path408" />
    <path
       transform="translate(680,341)"
       d="m 0,0 h 2 l 6,9 v 2 l 3,1 -3,2 -1,4 -5,-1 -17,8 -2,-1 2,-10 4,-2 H 0 L -1,4 Z"
       fill="#fbb24e"
       id="path418" />
    <path
       transform="translate(514,365)"
       d="m 0,0 3,1 3,6 5,3 v 2 h 2 l -1,3 -7,2 -2,6 H 0 l -3,-6 -7,-3 2,-4 6,-2 z"
       fill="#fcbb53"
       id="path428" />
    <path
       transform="translate(734,177)"
       d="m 0,0 7,1 5,5 -1,7 -3,3 H 0 L -5,12 -6,6 -2,1 Z"
       fill="#ef8a31"
       id="path432" />
    <path
       transform="translate(822,179)"
       d="m 0,0 h 7 l 3,1 1,2 v 7 L 7,14 H -1 L -5,10 V 3 Z"
       fill="#ed8d31"
       id="path450" />
    <path
       transform="translate(758,198)"
       d="m 0,0 5,1 3,2 1,7 -5,5 H -2 L -7,11 V 5 l 4,-4 z"
       fill="#ee8931"
       id="path454" />
    <path
       transform="translate(919,513)"
       d="m 0,0 5,1 v 6 l -20,1 -34,-1 2,-2 4,-1 h 31 L -1,1 Z"
       fill="#fccb5a"
       id="path456" />
    <path
       transform="translate(777,179)"
       d="m 0,0 h 8 l 4,2 V 9 L 8,14 H 1 L -4,9 -3,3 Z"
       fill="#ed8a30"
       id="path458" />
    <path
       transform="translate(799,199)"
       d="m 0,0 h 8 l 3,2 1,7 -5,5 H 1 L -4,10 V 4 Z"
       fill="#f38d33"
       id="path462" />
    <path
       transform="translate(822,571)"
       d="M 0,0 7,2 V 5 H 78 V 6 L 39,7 H 0 Z"
       fill="#fccb5b"
       id="path508" />
    <path
       transform="translate(724,382)"
       d="m 0,0 6,2 6,3 V 6 L 3,5 2,9 h -12 v 3 l -6,-2 1,-4 4,-3 10,-1 z"
       fill="#fab44f"
       id="path510" />
    <path
       transform="translate(855,578)"
       d="M 0,0 H 48 L 47,4 46,3 6,2 0,1 Z"
       fill="#0b3593"
       id="path598" />
    <path
       transform="translate(762,204)"
       d="M 0,0 H 5 L 4,6 0,9 h -6 l -5,-5 h 2 l 1,-3 5,3 h 2 z"
       fill="#ecb145"
       id="path612" />
    <path
       transform="translate(806,205)"
       d="M 0,0 H 5 L 4,5 0,8 H -6 L -11,4 V 1 l 10,1 z"
       fill="#f5ba4f"
       id="path618" />
    <path
       transform="translate(775,185)"
       d="M 0,0 4,2 9,1 h 3 V 6 L 10,8 H 3 L 0,6 Z"
       fill="#f3b34a"
       id="path676" />
    <path
       transform="translate(822,512)"
       d="m 0,0 h 2 v 2 l 5,2 9,2 1,2 H 0 Z"
       fill="#fccc5c"
       id="path696" />
    <path
       transform="translate(829,184)"
       d="M 0,0 H 2 V 7 L 0,9 H -5 L -10,5 V 1 h 3 l 1,4 5,-3 z"
       fill="#f7bd51"
       id="path698" />
    <path
       transform="translate(907,523)"
       d="M 0,0 3,2 4,13 3,14 H -2 V 5 Z"
       fill="#fcc958"
       id="path734" />
    <path
       transform="translate(742,385)"
       d="M 0,0 5,1 7,5 16,8 15,10 -1,5 -3,4 V 2 Z"
       fill="#424341"
       id="path738" />
    <path
       transform="translate(730,185)"
       d="m 0,0 h 3 l 3,3 7,-1 1,2 -2,4 H 6 L 1,4 Z"
       fill="#f6b54f"
       id="path746" />
    <path
       transform="translate(703,395)"
       d="m 0,0 9,2 2,3 -1,1 2,2 H 6 L 3,5 4,4 0,2 Z"
       fill="#fdb551"
       id="path820" />
    <path
       transform="translate(701,374)"
       d="m 0,0 h 8 l 7,1 -3,3 H 2 Z"
       fill="#fdb551"
       id="path826" />
    <path
       transform="translate(691,202)"
       d="m 0,0 h 3 l -4,8 h -2 v 2 h -2 l -1,3 -1,-4 z"
       fill="#424342"
       id="path838" />
    <path
       transform="translate(718,177)"
       d="M 0,0 H 5 L 2,5 -5,8 -7,7 -2,2 Z"
       fill="#122f6e"
       id="path840" />
    <path
       transform="translate(754,205)"
       d="M 0,0 5,3 7,4 6,7 H 0 L -3,3 h 2 z"
       fill="#f7b84e"
       id="path864" />
    <path
       transform="translate(621,353)"
       d="m 0,0 h 3 l 1,22 2,4 -4,1 V 1 Z"
       fill="#fcc658"
       id="path888" />
    <path
       transform="translate(529,343)"
       d="M 0,0 2,1 V 4 H 6 L 7,2 5,11 H 2 Z"
       fill="#fccd59"
       id="path890" />
    <path
       transform="translate(742,571)"
       d="M 0,0 2,4 V 6 H -9 l 2,-3 h 5 z"
       fill="#faca58"
       id="path928" />
    <path
       transform="translate(803,386)"
       d="M 0,0 9,2 V 3 H 4 L 3,7 -1,6 Z"
       fill="#424342"
       id="path930" />
    <path
       transform="translate(795,206)"
       d="m 0,0 h 5 l 1,5 5,1 V 7 H 5 L 0,3 Z"
       fill="#e7a93e"
       id="path936" />
  </g>
</svg>
