<?xml version="1.0" encoding="UTF-8" standalone="no"?>
<svg
   version="1.1"
   viewBox="0 0 1600 1448"
   width="1280"
   height="1280"
   id="svg994"
   sodipodi:docname="logo.svg"
   inkscape:version="1.1.2 (b8e25be833, 2022-02-05)"
   xmlns:inkscape="http://www.inkscape.org/namespaces/inkscape"
   xmlns:sodipodi="http://sodipodi.sourceforge.net/DTD/sodipodi-0.dtd"
   xmlns="http://www.w3.org/2000/svg"
   xmlns:svg="http://www.w3.org/2000/svg">
  <defs
     id="defs998" />
  <sodipodi:namedview
     id="namedview996"
     pagecolor="#ffffff"
     bordercolor="#666666"
     borderopacity="1.0"
     inkscape:pageshadow="2"
     inkscape:pageopacity="0.0"
     inkscape:pagecheckerboard="0"
     showgrid="false"
     inkscape:zoom="0.50859375"
     inkscape:cx="640"
     inkscape:cy="798.27957"
     inkscape:window-width="1600"
     inkscape:window-height="837"
     inkscape:window-x="-8"
     inkscape:window-y="-8"
     inkscape:window-maximized="1"
     inkscape:current-layer="svg994" />
  <g
     id="g2343"
     transform="translate(-36.86636,-137.63441)">
    <path
       transform="translate(955,112)"
       d="m 0,0 h 18 l 11,4 6,4 5,5 5,8 2,6 v 10 l -3,10 -9,17 -10,13 -13,15 -27,27 1,10 3,19 v 73 l -1,126 -6,-2 -2,3 -1,-2 v -6 l -3,3 h -2 v 2 l -9,9 -4,-4 -1,-7 v -13 l -2,-12 -1,-12 -3,-13 h -2 l -1,72 -1,4 -83,1 1,38 h 35 l 47,1 1,2 -1,14 -1,1 -82,1 v 39 h 81 l -1,7 -7,21 -8,15 -8,11 -9,10 -8,8 -14,10 -16,8 -16,6 -11,3 -7,1 h -28 l -16,-3 -15,-5 -16,-8 -11,-7 -10,-8 v -2 l -4,-2 -3,-3 v -2 h -2 l -11,-15 -9,-17 -6,-16 -2,-8 v -4 l 79,-1 -1,-39 h -79 l -1,-1 v -16 l 1,-1 h 80 l -1,-37 -9,-1 -71,-1 v -71 l 8,-5 8,-4 6,1 9,7 14,8 14,7 21,7 26,5 14,1 h 13 l 13,-2 18,-4 20,-7 16,-8 12,-7 16,-13 7,-6 6,-7 v -16 l -1,-20 -9,-11 v -3 l -3,-1 -2,5 -8,12 -13,15 -12,10 -18,11 -16,7 -15,4 -10,2 h -20 l -20,-3 -16,-5 -17,-8 v -3 l 27,-15 22,-13 20,-12 17,-11 33,-22 11,-8 17,-12 1,-2 -11,7 -7,3 -3,3 -9,3 -10,2 -2,-4 h -2 l -2,-4 -10,-5 -1,-3 3,-4 h -3 l -6,-1 -18,12 -19,12 -18,11 -20,12 -17,10 -22,12 -4,2 h -3 l -6,-9 v -2 h -2 l 1,4 h -2 l 1,5 v 3 l -7,1 h -6 l -4,12 -20,9 -17,6 h -2 v -2 l 2,-1 -2,-3 v -21 l 3,-5 14,-13 11,-9 2,-4 -11,-13 -7,-8 -4,-4 h -9 v -42 l 6,-25 8,-21 9,-17 9,-13 11,-13 6,-7 14,-11 13,-9 21,-11 19,-7 29,-6 h 18 l 25,2 23,6 25,11 9,5 7,-1 25,-11 20,-7 25,-7 z"
       fill="#f88d35"
       id="path4" />
    <path
       transform="translate(944,275)"
       d="m 0,0 h 1 v 62 l -1,231 -2,20 -4,17 -8,20 -8,15 -8,12 -7,9 -11,12 -11,10 -17,12 -15,8 -15,6 -21,6 -17,3 -21,1 -24,-3 -23,-6 -19,-8 -15,-8 -11,-8 -14,-12 -7,-7 -9,-11 -9,-13 -9,-16 -6,-14 -6,-21 -2,-11 -1,-11 -1,-93 v -52 l -23,6 -12,2 h -9 l -14,-3 -10,-6 -8,-10 -3,-9 v -9 l 4,-13 8,-14 12,-16 15,-16 21,-21 8,-7 10,-8 2,-3 8,-1 11,11 7,9 5,6 -2,4 -10,9 -8,7 -9,8 -1,3 v 21 l 2,4 h -3 v 2 l 26,-10 13,-6 2,-10 4,-2 h 11 l -1,-8 1,-4 h 2 l 6,9 v 2 l 17,-8 24,-14 22,-13 26,-16 25,-16 7,-5 5,1 4,-1 v 2 l 2,1 -4,4 1,2 10,5 1,4 h 2 l 2,3 10,-2 9,-3 h 2 l 2,-4 10,-4 5,-4 h 2 l -1,3 -17,12 -15,11 -11,7 -18,12 -22,14 -29,17 -24,14 -11,6 4,3 18,8 15,4 16,2 h 20 l 22,-5 17,-7 14,-8 12,-9 9,-8 9,-11 10,-15 3,-3 2,2 v 3 l 9,11 1,30 v 6 l -8,9 -8,7 -14,11 -17,10 -19,8 -19,6 -14,3 -10,1 h -13 l -20,-2 -24,-5 -19,-7 -16,-8 -16,-10 -5,-4 -6,1 -13,7 -1,71 h 71 l 9,1 1,1 v 37 l -80,1 v 16 l 79,1 1,11 v 28 l -5,1 h -74 l 4,14 6,16 8,15 9,12 1,3 h 2 l 5,6 11,9 10,7 16,8 14,5 12,3 7,1 h 28 l 15,-3 17,-6 16,-8 12,-8 12,-11 9,-10 7,-10 9,-17 8,-26 h -81 v -39 l 11,-1 71,-1 1,-15 -53,-1 h -29 l -1,-1 v -38 l 9,-1 h 74 l 1,-77 3,1 4,13 1,12 2,16 v 13 l 3,6 3,-1 4,-6 3,-1 v -2 h 2 l 1,-3 h 2 l 1,6 3,-4 5,5 V 58 Z"
       fill="#fbca59"
       id="path6" />
    <path
       transform="translate(569,537)"
       d="m 0,0 9,1 7,4 5,6 2,5 3,31 4,21 9,27 9,19 12,19 13,16 14,14 14,11 15,10 23,12 19,7 23,6 16,2 h 33 l 21,-3 17,-4 23,-8 21,-11 15,-10 10,-8 14,-12 10,-11 12,-16 11,-19 8,-17 7,-22 4,-18 2,-17 1,-19 3,-7 9,-7 5,-2 h 7 l 10,5 6,8 1,3 v 20 l -3,23 -5,23 -7,21 -7,16 -11,21 -10,15 -11,14 -15,16 -9,9 -11,9 -14,10 -18,11 -23,11 -27,9 -21,5 -20,3 v 32 l -1,94 h 129 l 10,1 8,6 5,8 v 10 l -3,6 -5,5 -5,3 -10,1 -277,-1 -8,-5 -5,-7 -1,-9 3,-8 5,-5 7,-5 h 109 l -1,-29 -1,-98 -13,-1 -20,-4 -24,-7 -20,-8 L 96,220 75,206 62,195 49,183 42,175 31,162 21,148 11,131 0,108 -7,89 l -6,-24 -4,-27 -1,-21 3,-7 8,-7 z"
       fill="#fcca59"
       id="path8" />
    <path
       transform="translate(903,384)"
       d="m 0,0 h 2 v 97 l -83,1 1,38 h 35 l 47,1 1,2 -1,14 -1,1 -82,1 v 39 H 0 l -1,7 -7,21 -8,15 -8,11 -9,10 -8,8 -14,10 -16,8 -16,6 -11,3 -7,1 h -28 l -16,-3 -15,-5 -16,-8 -11,-7 -10,-8 v -2 l -4,-2 -3,-3 v -2 h -2 l -11,-15 -9,-17 -6,-16 -2,-8 v -4 l 79,-1 -1,-39 h -79 l -1,-1 v -16 l 1,-1 h 80 l -1,-37 -9,-1 -71,-1 V 26 l 8,-5 8,-4 6,1 9,7 14,8 14,7 21,7 26,5 14,1 h 13 l 13,-2 18,-4 20,-7 16,-8 12,-7 16,-13 7,-6 z"
       fill="#082b77"
       id="path10" />
    <path
       transform="translate(809,280)"
       d="M 0,0 5,1 9,0 v 2 l 2,1 -4,4 1,2 10,5 1,4 h 2 l 2,3 10,-2 9,-3 h 2 l 2,-4 10,-4 5,-4 h 2 L 62,7 45,19 30,30 19,37 1,49 l -22,14 -29,17 -24,14 -11,6 4,3 18,8 15,4 16,2 h 20 l 22,-5 17,-7 14,-8 12,-9 9,-8 9,-11 10,-15 3,-3 2,2 v 3 l 9,11 1,30 v 6 l -8,9 -8,7 -14,11 -17,10 -19,8 -19,6 -14,3 -10,1 h -13 l -20,-2 -24,-5 -19,-7 -16,-8 -16,-10 -5,-4 -6,1 -16,8 -31,12 -6,1 v 53 h -1 v -52 l -23,6 -12,2 h -9 l -14,-3 -10,-6 -8,-10 -3,-9 v -9 l 4,-13 8,-14 12,-16 15,-16 21,-21 8,-7 10,-8 2,-3 8,-1 11,11 7,9 5,6 -2,4 -10,9 -8,7 -9,8 -1,3 v 21 l 2,4 h -3 v 2 l 26,-10 13,-6 2,-10 4,-2 h 11 l -1,-8 1,-4 h 2 l 6,9 v 2 l 17,-8 24,-14 22,-13 26,-16 25,-16 z"
       fill="#fbca59"
       id="path12" />
    <path
       transform="translate(783,156)"
       d="m 0,0 18,2 14,3 21,7 6,3 v 2 l 5,1 v 2 l 5,1 13,11 12,12 12,17 -1,5 -17,14 -16,12 -13,10 -14,10 -20,14 -17,11 -19,12 -18,11 -20,12 -17,10 -22,12 -4,2 h -3 l -9,-14 -8,-17 -5,-16 -2,-11 v -30 l 4,-19 6,-16 8,-15 9,-12 9,-10 11,-10 14,-9 15,-7 19,-6 13,-3 z"
       fill="#52710a"
       id="path14" />
    <path
       transform="translate(757,544)"
       d="m 0,0 33,1 h 9 l 2,-1 h 13 l 4,5 2,4 v 12 l 1,4 v 9 h 82 l -1,7 -7,21 -8,15 -8,11 -9,10 -8,8 -14,10 -16,8 -16,6 -11,3 -7,1 H 13 l -16,-3 -15,-5 -16,-8 -11,-7 -10,-8 v -2 l -4,-2 -3,-3 v -2 h -2 l -11,-15 -9,-17 -6,-16 -2,-8 v -4 l 79,-1 V 14 l 2,-4 h 2 l 1,-5 5,-3 h 3 z"
       fill="#1045c3"
       id="path16" />
    <path
       transform="translate(76,1029)"
       d="m 0,0 h 64 l 8,1 v 2 l 8,1 17,6 10,4 11,13 5,12 3,9 2,14 v 21 l -3,16 -5,14 -7,11 -10,9 -16,8 -15,4 -15,2 h -68 l -2,-4 13,-1 V 8 L -9,5 -16,2 V 1 Z"
       fill="#720b05"
       id="path18" />
    <path
       transform="translate(661,410)"
       d="m 0,0 h 2 v 71 h 71 l 9,1 1,1 v 37 l -80,1 v 16 l 79,1 1,11 v 28 l -5,1 H 4 l 1,10 -2,2 -4,1 1,9 -4,-2 -1,2 -1,-3 -3,9 -1,4 -10,-14 -2,3 -3,-8 -3,-9 v -2 l -2,1 -1,8 1,7 h -3 l -3,-15 -1,-11 V 14 l 19,-7 z"
       fill="#fcb450"
       id="path20" />
    <path
       transform="translate(944,275)"
       d="m 0,0 h 1 v 62 l -1,231 -1,2 -2,13 -6,3 h -2 l -3,9 -6,12 -4,-2 -1,-2 -7,1 v -2 h -2 l -1,-4 2,-5 2,-9 1,-5 -1,-2 h 10 l 1,-4 h -18 l -4,1 v 2 h -73 v -3 l -5,-1 -2,-1 v -32 l 11,-1 71,-1 1,-15 -53,-1 h -29 l -1,-1 v -38 l 9,-1 h 74 l 1,-77 3,1 4,13 1,12 2,16 v 13 l 3,6 3,-1 4,-6 3,-1 v -2 h 2 l 1,-3 h 2 l 1,6 3,-4 5,5 V 58 Z"
       fill="#fcb550"
       id="path22" />
    <path
       transform="translate(656,915)"
       d="m 0,0 h 276 l 10,1 8,6 5,8 v 10 l -3,6 -5,5 -5,3 -10,1 -277,-1 -8,-5 -5,-7 -1,-9 3,-8 5,-5 z"
       fill="#f68c34"
       id="path24" />
    <path
       transform="translate(454,1286)"
       d="m 0,0 h 29 l 1,1 -1,73 H 41 L 40,33 35,32 34,28 h 29 l 1,45 11,1 V 33 l -6,-1 v -4 l 12,-1 h 13 l 1,1 h 7 l 5,-2 h 7 l 6,3 7,8 1,35 5,3 v 4 l -2,1 h -251 l -2,-1 v -5 h 4 V 40 l -1,-6 -4,-2 1,-5 h 24 l 9,1 3,-2 11,1 5,5 4,-1 10,-5 11,2 5,5 2,3 1,37 h 10 l -1,-36 -1,-4 -5,-2 V 28 H -4 V 74 L 2,73 6,74 5,7 0,5 Z"
       fill="#c29e24"
       id="path26" />
    <path
       transform="translate(1323,1079)"
       d="m 0,0 h 47 l -1,18 6,-8 8,-7 10,-3 h 10 l 11,4 8,7 4,8 4,-5 7,-8 8,-4 7,-2 h 8 l 10,3 8,6 6,9 1,4 1,18 1,52 9,1 1,5 -56,-1 4,-4 3,1 V 34 l -1,-19 -4,-4 -4,2 -5,5 -4,6 -1,3 -1,66 5,1 3,3 H 59 l 2,-3 h 6 l -1,-78 -1,-3 -6,-1 -5,5 -5,8 -2,5 -1,63 6,1 4,3 H -1 V 93 H 9 L 8,5 0,4 -1,1 Z"
       fill="#730b05"
       id="path28" />
    <path
       transform="translate(903,384)"
       d="M 0,0 H 2 V 92 H 1 l -2,-16 -6,-4 -1,-3 -8,1 -5,3 -23,3 -8,2 -9,1 -32,1 -14,1 -4,1 h -41 l -22,-2 h -11 l -29,2 -9,-1 -6,-5 v -2 l -7,1 -2,2 -1,-1 -1,-32 V 26 l 8,-5 8,-4 6,1 9,7 14,8 14,7 21,7 26,5 14,1 h 13 l 13,-2 18,-4 20,-7 16,-8 12,-7 16,-13 7,-6 z"
       fill="#07235f"
       id="path30" />
    <path
       transform="translate(902,262)"
       d="m 0,0 h 2 l 1,16 -1,16 -4,18 -6,16 -6,11 -8,11 -12,14 -12,10 -18,11 -16,7 -15,4 -10,2 h -20 l -20,-3 -16,-5 -17,-8 v -3 l 27,-15 22,-13 20,-12 17,-11 33,-22 11,-8 18,-13 13,-10 14,-11 z"
       fill="#51710a"
       id="path32" />
    <path
       transform="translate(388,1079)"
       d="m 0,0 h 8 l 14,3 7,3 9,8 5,9 1,3 v 14 l -4,11 -7,8 -10,5 -9,2 H -8 l -9,-1 v 2 l -4,1 v 3 l 40,1 16,3 8,4 7,7 5,9 1,4 v 17 l -4,11 -6,8 -9,6 -9,4 -18,4 h -21 l -13,-3 -12,-4 -8,-6 -3,-5 v -11 l 4,-6 5,-4 7,-1 9,4 -1,6 -1,10 3,7 1,3 4,2 8,2 h 23 l 9,-3 6,-4 4,-5 2,-4 v -8 l -3,-6 -6,-4 -6,-1 -38,-1 -11,-3 -9,-8 -2,-5 v -7 l 4,-8 9,-8 7,-2 -1,-3 -10,-6 -6,-7 -3,-8 V 25 l 4,-8 5,-6 9,-6 14,-4 z"
       fill="#470806"
       id="path34" />
    <path
       transform="translate(426,1046)"
       d="m 0,0 h 11 l 9,3 7,6 3,7 v 10 l -3,6 -7,6 -7,2 H 6 l 7,15 1,5 v 13 l -3,10 -6,8 -9,8 -5,4 16,5 9,6 7,9 4,11 v 17 l -4,10 -7,9 -9,8 -10,5 -15,4 -7,1 h -22 l -23,-4 -10,-4 -8,-6 -4,-5 -2,-5 v -10 l 4,-9 6,-5 4,-1 -1,-5 -4,-6 v -11 l 5,-10 4,-5 5,-3 -2,-4 -7,-8 -4,-9 -1,-4 V 57 l 5,-12 9,-10 14,-7 11,-2 h 19 l 6,1 1,-2 1,-9 6,-10 8,-5 z m -38,33 -15,3 -9,4 -9,7 -5,8 -1,3 v 17 l 3,8 7,8 9,5 1,3 -7,2 -9,8 -4,8 v 7 l 3,6 8,7 11,3 38,1 8,2 5,4 2,5 v 8 l -5,8 -5,4 -6,3 -5,1 h -23 l -12,-4 -2,-4 -2,-6 1,-10 1,-6 -9,-4 -7,1 -7,6 -2,4 v 11 l 4,6 9,6 14,4 9,2 h 21 l 18,-4 14,-7 6,-5 6,-10 2,-7 v -17 l -4,-10 -9,-10 -8,-4 -16,-3 -40,-1 v -3 l 4,-1 v -2 l 9,1 h 22 l 11,-3 9,-5 6,-7 4,-11 V 59 l -4,-9 -6,-7 -6,-5 -13,-4 -7,-1 z"
       fill="#f8c655"
       id="path36" />
    <path
       transform="translate(1390,1072)"
       d="m 0,0 h 14 l 12,3 8,6 3,2 8,-7 6,-3 5,-1 h 17 l 9,3 8,5 7,8 3,7 1,38 v 34 l 3,-1 h 7 l 1,1 v 14 l -1,1 H -76 l -2,-4 V 95 l 1,-1 h 11 l -1,-76 -9,1 -1,-1 V 2 h 69 z m -67,7 -1,2 1,2 8,1 1,88 h -10 v 4 h 57 l -4,-3 -6,-1 1,-63 6,-12 5,-5 5,-1 2,1 1,3 1,78 h -6 l -2,3 h 54 l -5,-4 h -3 l 1,-66 4,-8 4,-5 4,-3 5,2 1,2 1,19 v 60 l -4,-1 -3,4 56,1 -1,-5 L 97,99 96,47 95,29 92,21 85,13 78,9 70,7 h -8 l -12,4 -9,8 -4,7 -3,-4 -4,-6 -8,-6 -9,-3 H 3 l -10,3 -8,7 -6,8 1,-18 z"
       fill="#f7c353"
       id="path38" />
    <path
       transform="translate(1218,1079)"
       d="m 0,0 h 16 l 15,3 10,5 6,7 3,11 1,16 1,42 1,1 8,-1 2,-9 3,-6 h 1 v 11 l -5,10 -7,5 -6,2 H 33 L 22,93 16,88 13,85 8,92 -2,97 h -16 l -11,-4 -7,-6 -3,-7 V 66 l 4,-6 7,-6 10,-4 12,-2 H 13 L 12,18 10,10 5,5 -5,7 -6,8 v 7 l 7,4 v 10 l -3,6 -5,4 -3,1 h -13 l -7,-4 -3,-5 -1,-4 v -7 l 4,-8 8,-6 11,-4 z"
       fill="#730b05"
       id="path40" />
    <path
       transform="translate(727,172)"
       d="m 0,0 5,1 -4,8 -5,5 -7,17 -5,18 -3,20 v 30 l 3,17 7,20 10,19 2,3 -9,6 -26,14 -4,2 h -3 l -9,-14 -8,-17 -5,-16 -2,-11 V 92 l 4,-19 6,-16 8,-15 9,-12 9,-10 11,-10 14,-9 z"
       fill="#434347"
       id="path42" />
    <path
       transform="translate(734,1079)"
       d="m 0,0 h 16 l 16,3 8,4 8,9 3,13 1,13 1,44 8,-1 3,-14 2,-6 2,-1 v 12 l -3,10 -6,7 -6,3 -4,1 H 33 L 22,93 15,86 13,83 V 53 l -7,1 -4,4 -2,7 v 15 l 2,9 5,-1 5,-5 -1,5 -4,5 -9,4 h -16 l -11,-4 -6,-5 -3,-5 -1,-4 V 68 l 4,-8 7,-6 11,-4 13,-2 H 14 L 12,15 9,8 6,5 l -8,1 -3,2 -1,6 1,2 6,3 v 11 l -3,5 -5,4 -3,1 h -12 l -6,-3 -4,-4 -2,-6 1,-10 8,-9 8,-4 11,-3 z"
       fill="#720b05"
       id="path44" />
    <path
       transform="translate(1073,1031)"
       d="m 0,0 h 15 l 10,2 16,3 h 8 l 2,-5 2,1 1,28 V 46 L 49,41 41,27 33,16 26,10 19,7 7,6 l -9,2 -6,4 -6,8 -5,16 -1,7 -1,19 v 25 l 2,20 4,14 6,11 7,6 10,3 12,-1 8,-4 9,-10 9,-14 8,-17 h 2 l -1,31 -1,15 -11,-1 -24,5 H -3 l -15,-3 -13,-5 -10,-6 -8,-8 -7,-12 -5,-15 -2,-20 1,-18 4,-15 7,-14 6,-8 11,-9 16,-8 z"
       fill="#730b05"
       id="path46" />
    <path
       transform="translate(885,1023)"
       d="M 0,0 3,2 2,149 h 7 l 3,2 -1,3 -54,-1 -5,-2 1,-2 8,-1 1,-83 V 2 Z"
       fill="#ba1209"
       id="path48" />
    <path
       transform="translate(757,544)"
       d="m 0,0 33,1 h 9 l 2,-1 h 13 l 4,5 2,4 v 12 l 1,4 v 9 h 82 l -1,4 -1,-1 h -40 l -9,1 -16,6 -1,2 -9,2 -5,2 H 56 L 42,54 H 21 l -6,1 -27,-1 h -28 l -1,2 -11,1 h -6 l -1,1 h -12 l -3,-4 -3,-6 v -7 l -7,-2 h -2 l 2,8 -1,7 h -2 l -5,-16 v -4 l 79,-1 V 14 l 2,-4 h 2 l 1,-5 5,-3 h 3 z"
       fill="#0b3baa"
       id="path50" />
    <path
       transform="translate(903,1314)"
       d="m 0,0 h 27 l 1,40 h 8 V 5 H 31 L 30,0 h 27 l 1,45 5,1 h 6 V 6 L 64,5 63,1 64,0 h 15 l 8,2 v 2 l 5,1 1,-3 h 6 l 1,2 -2,4 -5,4 h -2 v 33 l 9,-1 1,-39 16,1 -1,5 -7,2 1,5 3,1 1,-4 3,1 4,4 1,25 h 10 V 5 h -5 l -1,-5 h 29 v 46 h 5 l 1,5 -1,1 H 38 l -2,-2 -7,1 -1,1 H 15 L 9,47 6,35 V 5 H 1 Z"
       fill="#484746"
       id="path52" />
    <path
       transform="translate(117,1036)"
       d="m 0,0 21,1 9,3 7,8 5,12 3,23 v 44 l -3,18 -4,11 -6,8 -6,5 -7,3 -16,1 -4,-1 V 1 Z"
       fill="#fdfffe"
       id="path54" />
    <path
       transform="translate(76,1029)"
       d="m 0,0 h 64 l 8,1 v 2 l 8,1 17,6 10,4 11,13 5,12 3,9 2,14 v 21 h -1 V 66 l -5,1 -5,5 -5,1 -6,1 H 98 L 92,70 91,68 H 88 L 87,98 H 86 L 85,54 82,31 77,19 71,12 62,9 41,8 40,123 H 39 V 69 h -7 l -6,2 H 15 L 12,70 V 68 H 10 L 6,63 3,62 2,142 H 1 L 0,8 -9,5 -16,2 V 1 Z"
       fill="#ba1409"
       id="path56" />
    <path
       transform="translate(642,929)"
       d="m 0,0 h 2 l 4,4 9,1 h 5 l 6,2 32,1 4,1 1,-2 16,1 h 18 l 23,-1 h 71 l 5,1 h 7 l 3,-1 12,1 5,-1 8,1 2,-1 3,1 5,-1 3,1 7,-1 11,1 2,-1 27,1 1,-2 h 6 l 5,-3 8,-1 2,-1 v 10 l -3,6 -5,5 -5,3 -10,1 L 13,25 5,20 0,13 -1,4 Z"
       fill="#fcb551"
       id="path58" />
    <path
       transform="translate(569,537)"
       d="m 0,0 9,1 7,4 5,6 2,5 3,31 4,21 9,27 9,19 12,19 -1,3 v -2 h -6 v -3 l -5,-2 -5,1 -5,3 -4,2 -6,-1 -5,-3 v -2 l -4,-2 -2,-3 -9,1 -8,-17 -7,-19 -6,-24 -4,-27 -1,-21 3,-7 8,-7 z"
       fill="#f98e36"
       id="path60" />
    <path
       transform="translate(1068,1028)"
       d="m 0,0 h 27 l 14,1 h 22 l 1,1 2,45 V 57 H 52 L 48,53 38,34 30,23 25,19 19,17 h -8 l -7,3 -6,8 -4,9 -3,19 v 38 l 2,15 4,14 7,10 5,3 5,1 h 8 l 7,-4 6,-7 7,-11 9,-18 h 16 l 1,4 -1,38 -1,15 H 52 l -2,-2 -9,1 -16,3 H -2 l -18,-4 -16,-8 -9,-7 -7,-8 -7,-14 -4,-14 -2,-13 V 65 l 3,-15 7,-16 9,-13 10,-9 12,-7 16,-4 z m 5,3 -18,4 -16,8 -8,6 -9,11 -8,16 -3,13 -1,18 2,20 5,15 7,12 9,9 16,8 14,4 7,1 h 22 l 24,-5 11,1 2,-40 v -6 h -2 l -9,19 -9,13 -8,9 -8,4 -12,1 -10,-3 -8,-7 -6,-13 -3,-11 -2,-20 V 65 l 1,-19 3,-15 4,-10 7,-8 6,-3 13,-1 9,2 9,6 6,7 8,13 6,10 3,2 V 32 L 58,3 H 56 L 54,8 H 46 L 30,5 20,3 Z"
       fill="#fac254"
       id="path62" />
    <path
       transform="translate(992,537)"
       d="m 0,0 h 7 l 10,5 6,8 1,3 v 20 l -3,23 -5,23 -7,21 -7,16 -3,3 -5,1 -5,5 h -2 l -2,5 -8,2 -1,-4 -6,2 -5,-1 v -2 l -6,-2 2,-7 -2,-5 3,-9 7,-15 7,-22 4,-18 2,-17 1,-19 3,-7 9,-7 z"
       fill="#f98e36"
       id="path64" />
    <path
       transform="translate(809,280)"
       d="M 0,0 5,1 9,0 v 2 l 2,1 -4,4 1,2 10,5 1,4 h 2 l 2,3 10,-2 9,-3 h 2 l 2,-4 10,-4 5,-4 h 2 L 62,7 45,19 30,30 19,37 1,49 -21,63 -46,78 h -2 v -2 l -15,4 -13,5 -12,6 -6,-2 -9,-5 h -9 l 1,-5 16,-12 4,-6 -4,-2 17,-10 20,-12 26,-16 25,-16 z"
       fill="#fbb44f"
       id="path66" />
    <path
       transform="translate(625,1045)"
       d="m 0,0 h 3 v 35 l 4,-1 21,-1 v 6 l -1,1 H 10 l -7,-1 1,74 1,9 9,1 8,-5 5,-8 3,-8 h 2 l 1,6 -5,10 -8,8 -8,4 -3,1 H -9 l -10,-3 -10,-6 -5,-10 -1,-5 -1,-68 h -7 l -1,-5 4,-1 5,1 V 9 Z"
       fill="#720b05"
       id="path68" />
    <path
       transform="translate(737,1071)"
       d="m 0,0 19,1 14,3 10,6 6,7 4,9 1,6 2,36 15,2 v 18 l -2,8 -6,9 -8,6 -10,3 H 31 l -13,-4 -6,-4 -5,2 -8,4 -9,2 h -9 l -12,-3 -10,-6 -6,-8 -3,-9 V 77 l 4,-11 7,-7 7,-4 -1,-3 -8,-7 -4,-8 V 27 l 3,-9 8,-9 10,-5 13,-3 z m -3,8 -14,3 -9,4 -8,7 -3,7 1,9 3,5 5,4 3,1 h 12 l 6,-3 4,-4 1,-3 V 27 l -6,-3 -1,-5 2,-4 6,-2 6,1 3,5 2,15 1,22 H -7 l -17,3 -10,5 -6,7 -2,5 v 11 l 3,7 4,5 10,5 4,1 H -5 L 5,100 9,95 8,91 4,96 -1,97 -3,88 V 73 l 3,-9 3,-2 7,-1 v 30 l 9,10 11,4 h 16 l 8,-3 6,-5 4,-8 1,-5 V 72 l -3,2 -3,15 -1,4 -8,1 L 49,50 47,31 44,23 37,15 29,11 13,8 Z"
       fill="#f9c655"
       id="path70" />
    <path
       transform="translate(388,1079)"
       d="m 0,0 h 8 l 14,3 7,3 9,8 5,9 1,3 v 14 l -4,11 -7,8 -10,5 -9,2 H -8 l -9,-1 v 2 l -4,1 -1,2 -2,-3 5,-1 -1,-3 -10,-6 -6,-7 -3,-8 V 25 l 4,-8 5,-6 9,-6 14,-4 z"
       fill="#740b05"
       id="path72" />
    <path
       transform="translate(561,1312)"
       d="m 0,0 h 7 l 6,3 7,8 1,35 5,3 v 4 l -2,1 h -251 l -2,-1 v -5 h 4 V 14 l -1,-6 -4,-2 1,-5 h 24 l 10,2 v 6 l -3,2 h -3 l -1,36 h 8 l -1,4 h 116 l 12,-2 11,1 10,-2 1,-5 2,4 11,1 V 7 L -38,6 V 2 l 12,-1 h 13 l 1,1 h 7 z"
       fill="#599031"
       id="path74" />
    <path
       transform="translate(778,750)"
       d="m 0,0 h 11 l 6,3 7,7 2,5 v 56 l -2,59 h -1 l -1,-11 h -2 l -2,-4 v -3 h -2 l -1,-1 -1,3 -3,-1 H 0 l -3,-1 1,-4 -4,-1 -5,7 -2,-3 -1,-72 V 14 l 5,-8 6,-5 z"
       fill="#f98c35"
       id="path76" />
    <path
       transform="translate(1211,1072)"
       d="m 0,0 h 28 l 14,3 10,5 7,8 4,10 1,7 1,18 v 17 h 9 l 7,1 v 17 l -3,11 -7,9 -9,5 -7,2 H 41 l -13,-4 -5,-3 -6,1 -8,4 -10,2 -13,-1 -11,-4 -8,-6 -5,-8 -2,-7 V 75 l 3,-8 7,-8 8,-5 -2,-4 -7,-5 -3,-5 -1,-4 V 25 l 4,-10 7,-7 8,-4 9,-3 z m 7,7 -15,3 -12,6 -5,6 -2,5 v 7 l 3,7 5,5 3,1 H -3 L 4,43 7,39 8,36 V 26 L 1,22 v -7 l 9,-3 5,2 3,5 1,6 1,30 H 1 l -16,3 -9,5 -7,8 -1,2 v 14 l 4,8 6,5 11,4 H 5 l 10,-5 5,-7 5,5 8,5 7,2 h 16 l 9,-4 5,-5 4,-8 V 76 l -2,2 -2,4 -2,9 -8,1 L 59,91 58,49 57,33 54,22 47,14 35,9 23,7 Z"
       fill="#fac857"
       id="path78" />
    <path
       transform="translate(951,650)"
       d="m 0,0 2,2 -1,3 2,4 -3,6 4,1 3,3 10,-1 2,1 1,2 6,-2 2,-4 8,-7 h 5 l -2,6 -10,18 -8,11 -10,13 -15,16 -9,9 -11,9 -5,2 -11,-2 -12,6 h -2 v -2 h -7 l -7,-4 -2,-5 -6,2 v -2 l 5,-1 v -2 h 3 v -2 l 4,-2 -3,-4 v -4 l 12,-8 10,-8 14,-12 10,-11 12,-16 z"
       fill="#fcb551"
       id="path80" />
    <path
       transform="translate(852,1312)"
       d="m 0,0 10,1 4,4 1,2 5,-1 6,-5 h 12 l 7,6 3,5 1,36 5,1 -1,5 h -83 l -7,-1 v -4 l 6,-3 V 7 h -5 l -1,-5 24,-1 3,1 2,2 z"
       fill="#1e1072"
       id="path82" />
    <path
       transform="translate(882,721)"
       d="M 0,0 H 2 L 6,8 1,9 v 2 h -3 v 2 l -5,1 h 4 2 l 3,5 6,3 7,1 v 2 l 14,-7 11,2 v 3 l -17,11 -14,8 -19,9 -27,9 -21,5 -20,3 -1,-24 -3,-6 -9,-8 v -2 l 29,-4 17,-4 23,-8 21,-11 z"
       fill="#fcca59"
       id="path84" />
    <path
       transform="translate(582,660)"
       d="m 0,0 5,1 5,5 v 2 l 5,2 7,1 5,-4 4,-2 5,1 4,2 v 3 h 8 l 11,14 15,15 14,11 15,10 7,4 2,3 4,2 -1,4 -15,-3 -6,-3 h -4 l 4,2 -1,1 4,3 2,3 -4,3 L 77,81 63,76 50,69 43,67 36,60 29,52 18,39 8,25 -2,8 -4,2 Z"
       fill="#fcb551"
       id="path86" />
    <path
       transform="translate(483,1079)"
       d="m 0,0 h 49 v 92 l 8,1 2,3 -1,1 H 1 L -1,96 V 93 L 10,92 V 4 L 2,5 Z"
       fill="#730b05"
       id="path88" />
    <path
       transform="translate(249,1078)"
       d="m 0,0 47,1 v 92 l 9,1 1,4 H 1 l -3,-1 1,-3 H 9 V 45 L 8,6 1,5 -1,1 Z"
       fill="#730b05"
       id="path90" />
    <path
       transform="translate(1452,1079)"
       d="m 0,0 h 8 l 10,3 8,6 6,9 1,4 1,18 1,52 9,1 1,5 -56,-1 4,-4 3,1 V 34 L -5,15 -6,8 -9,7 v 2 h -5 l -3,1 2,-4 8,-4 z"
       fill="#730b05"
       id="path92" />
    <path
       transform="translate(1441,1089)"
       d="m 0,0 5,2 2,3 1,19 v 58 l -1,2 -5,1 -1,1 48,1 v 1 H -75 v -1 l 10,-1 -7,-3 V 20 l 6,-12 4,-5 3,-2 6,1 2,4 v 78 l -7,2 h 51 l -6,-3 V 17 l 4,-8 5,-6 z"
       fill="#fac254"
       id="path94" />
    <path
       transform="translate(1260,1286)"
       d="m 0,0 h 29 l 1,1 v 70 l 1,2 4,2 -1,4 -22,1 -4,-2 -7,1 -1,1 h -9 l -7,-4 -6,-7 -2,-5 V 41 l 4,-7 6,-6 3,-1 H 2 L 7,28 6,8 0,6 -1,1 Z"
       fill="#558d31"
       id="path96" />
    <path
       transform="translate(629,1038)"
       d="M 0,0 H 5 V 37 L 17,36 H 31 V 53 H 20 l -15,-1 1,73 6,-3 4,-8 2,-11 5,-1 12,2 1,1 -1,13 -5,12 -10,10 -10,5 -11,2 -14,-1 -13,-4 -8,-5 -6,-7 -3,-8 -1,-11 -1,-59 -7,1 -3,-2 V 37 l 1,-1 10,1 V 11 l 7,-2 z m -4,7 -35,9 v 25 l -8,-1 -1,5 5,1 h 3 l 1,68 3,10 3,5 10,6 10,3 H 5 l 9,-4 8,-7 4,-5 3,-7 -1,-6 h -2 l -5,12 -4,5 -7,4 H 4 l -3,-1 -1,-9 -1,-74 7,1 h 17 l 1,-1 V 40 L 3,41 -1,42 V 7 Z"
       fill="#f8c353"
       id="path98" />
    <path
       transform="translate(849,1089)"
       d="m 0,0 5,5 4,6 v 2 l 19,-1 3,-2 6,-1 v 74 h 8 l 3,2 -1,3 -54,-1 -5,-2 1,-2 10,-1 V 9 Z"
       fill="#720b05"
       id="path100" />
    <path
       transform="translate(630,297)"
       d="m 0,0 4,2 9,9 7,9 5,6 -2,4 -10,9 -8,7 -9,8 -1,3 v 21 l 2,4 -4,1 V 57 l -6,5 -9,11 -6,6 h -2 l 1,-11 h -2 l -1,3 h -3 v 2 h -3 v 2 l -3,-1 v -2 l -8,-6 -2,-3 -1,-3 h 2 l 1,-7 4,-4 h -2 l -1,-5 9,-10 14,-14 7,-8 10,-8 2,-3 z"
       fill="#fcb551"
       id="path102" />
    <path
       transform="translate(1073,1031)"
       d="m 0,0 h 15 l 10,2 16,3 h 8 l 2,-5 2,1 1,28 V 46 L 49,41 41,27 33,16 26,10 19,7 7,6 l -9,2 -6,4 -6,8 -5,16 -1,7 -1,19 -2,-2 -2,5 -5,4 -14,5 -5,1 -4,-2 -5,-8 -2,-1 -1,-11 4,-13 6,-11 6,-8 11,-9 16,-8 z"
       fill="#b91108"
       id="path104" />
    <path
       transform="translate(1208,1312)"
       d="m 0,0 10,1 6,3 4,4 2,7 v 20 l -1,12 5,1 1,5 -2,1 h -60 l -2,-2 1,-5 h 4 V 7 l -5,-1 -1,-4 5,-1 h 18 l 14,2 z"
       fill="#bc9d24"
       id="path106" />
    <path
       transform="translate(727,172)"
       d="m 0,0 5,1 -4,8 -5,5 -7,17 -5,18 -3,20 v 30 l 3,17 7,20 10,19 2,3 -9,6 -22,12 -1,-2 -1,-4 -1,-2 h 2 l -9,-9 -7,-15 -3,-11 -1,-6 -1,-15 1,-9 2,-12 3,-7 2,-8 -1,-5 1,-2 h 4 l -1,9 3,7 2,8 4,3 v 7 l 3,11 5,12 h 2 v -12 l -2,-9 V 53 l 2,-7 2,-11 4,-9 4,-10 V 11 L -5,6 -7,4 Z"
       fill="#424341"
       id="path108" />
    <path
       transform="translate(198,1095)"
       d="m 0,0 h 5 v 25 l -4,15 -7,14 -8,9 -10,7 -14,6 -18,4 -9,1 h -68 l -2,-4 15,-1 1,-4 2,1 v 5 l 2,1 h 33 v -2 l 20,-1 10,-5 7,-8 4,-10 3,-14 1,-7 h 2 V 1 l 7,3 4,3 h 8 L -6,6 -1,1 Z"
       fill="#740b05"
       id="path110" />
    <path
       transform="translate(58,1029)"
       d="m 0,0 h 18 v 1 l -14,1 7,3 7,2 1,1 v 134 l -1,1 H 5 l 2,3 h 68 l 20,-3 15,-5 11,-6 9,-8 7,-11 5,-14 3,-16 V 62 l -3,-17 -6,-16 -7,-9 -2,-3 4,2 8,9 8,14 3,11 2,15 v 16 l -3,19 -5,13 -9,13 -7,7 -13,8 -12,5 -15,3 -8,1 H 1 l -3,-2 v -13 l 2,-1 H 12 L 11,94 V 14 L 8,15 H 0 L -1,14 V 1 Z"
       fill="#fac757"
       id="path112" />
    <path
       transform="translate(368,1312)"
       d="m 0,0 11,1 5,5 4,-1 10,-5 11,2 5,5 2,3 v 39 l 7,1 v 1 l -7,1 H -3 l 1,-4 -7,-1 V 14 l 1,-3 5,-2 V 2 Z"
       fill="#be9d24"
       id="path114" />
    <path
       transform="translate(904,537)"
       d="m 0,0 h 20 l 1,1 v 16 l -1,6 -13,1 -24,1 -23,2 h -22 l -12,-2 -2,-1 v -2 h -6 V 2 l 11,-1 z"
       fill="#f88c34"
       id="path116" />
    <path
       transform="translate(830,1019)"
       d="m 0,0 h 61 l 1,3 -1,19 v 53 l 1,73 10,-1 1,1 1,13 -1,2 H 1 l -1,-1 v -15 h 8 l 4,1 V 14 L 1,15 0,14 -1,1 Z M 55,4 17,6 v 63 l -1,83 -8,1 v 3 l 4,1 54,1 v -4 l -7,-1 H 57 L 58,5 Z"
       fill="#fbc456"
       id="path118" />
    <path
       transform="translate(1321,1312)"
       d="m 0,0 12,1 10,5 6,7 2,5 v 16 l -4,9 -7,7 -10,4 H -2 l -10,-3 -9,-8 -3,-5 -1,-14 2,-9 6,-8 8,-5 z"
       fill="#598f31"
       id="path120" />
    <path
       transform="translate(663,537)"
       d="m 0,0 80,1 1,11 V 38 H 80 L 79,22 68,24 H 41 l -3,1 H 26 l -12,1 -28,-2 -7,-1 -1,-1 V 1 Z"
       fill="#f88c34"
       id="path122" />
    <path
       transform="translate(240,1073)"
       d="m 0,0 h 49 l 13,1 v 91 l 10,1 2,2 v 13 l -1,1 H 1 l -2,-1 V 94 L 0,93 H 11 L 10,16 4,18 -1,17 V 1 Z m 9,5 v 4 l 1,1 7,1 1,39 V 99 H 8 l -1,3 3,1 H 66 L 65,99 56,98 V 6 Z"
       fill="#fac556"
       id="path124" />
    <path
       transform="translate(611,1312)"
       d="m 0,0 h 8 l 10,3 8,6 3,5 1,4 v 16 l -7,14 -5,4 -6,2 H -5 l -7,-3 -8,-8 -3,-8 V 18 l 6,-9 9,-7 z"
       fill="#1f0f73"
       id="path126" />
    <path
       transform="translate(893,331)"
       d="m 0,0 2,2 v 3 l 9,11 1,30 v 6 l -6,5 -11,4 -16,8 -13,3 -3,-3 -11,-5 1,-5 -5,-3 -1,-4 16,-10 15,-13 9,-11 10,-15 z"
       fill="#fcb450"
       id="path128" />
    <path
       transform="translate(235,1290)"
       d="m 0,0 h 15 l 7,2 10,-1 1,1 V 26 L 32,28 28,26 22,16 13,8 H 5 l -5,5 -3,11 v 27 l 3,10 7,8 6,-1 9,-8 5,-9 1,-2 h 6 l -1,25 -3,1 -9,-2 -8,3 H 4 l -12,-3 -10,-6 -7,-8 -3,-8 -1,-7 V 33 l 3,-11 4,-8 4,-5 9,-6 z"
       fill="#598d31"
       id="path130" />
    <path
       transform="translate(905,480)"
       d="m 0,0 h 18 l 2,1 v 20 l -2,1 -26,1 -13,1 h -5 l -1,1 h -7 l -4,1 h -20 l -13,-1 -1,-3 -9,-2 -2,-3 V 2 l 9,-1 z"
       fill="#f88c34"
       id="path132" />
    <path
       transform="translate(784,1312)"
       d="m 0,0 h 8 l 10,3 8,7 4,8 v 16 l -7,13 -5,5 -6,2 H -4 l -7,-3 -6,-5 -6,-11 V 20 l 4,-9 10,-9 z"
       fill="#1e1073"
       id="path134" />
    <path
       transform="translate(475,1073)"
       d="m 0,0 h 47 l 15,1 1,1 -1,92 2,-1 h 8 l 1,1 1,14 -1,1 H 1 l -2,-2 V 94 L 0,93 H 11 L 10,17 0,18 -1,17 V 1 Z m 8,6 2,5 8,-1 V 98 L 7,99 v 3 l 2,1 h 57 v -3 L 65,99 57,98 V 6 Z"
       fill="#f6c353"
       id="path136" />
    <path
       transform="translate(662,479)"
       d="m 0,0 1,2 h 71 l 9,1 1,1 v 20 l -2,-3 -12,3 -22,1 h -5 l -1,-1 -2,2 H 10 L -4,25 -19,23 -21,18 V 3 l 1,-1 H 0 Z"
       fill="#f88b34"
       id="path138" />
    <path
       transform="translate(903,1314)"
       d="m 0,0 h 27 l 1,40 h 8 V 5 H 31 L 30,0 h 27 l 1,49 -1,2 H 37 l -4,-1 -5,2 H 15 L 9,47 6,35 V 5 H 1 Z"
       fill="#1f0e74"
       id="path140" />
    <path
       transform="translate(117,1036)"
       d="m 0,0 21,1 9,3 7,8 5,12 3,23 v 44 l -3,18 -4,11 -6,8 -6,5 -7,3 -16,1 -4,-1 V 1 Z M 6,10 5,34 v 93 l 1,2 h 7 l 10,-3 7,-8 4,-10 2,-7 1,-9 V 44 L 34,27 29,17 23,12 15,10 Z"
       fill="#f9bf52"
       id="path142" />
    <path
       transform="translate(1134,1312)"
       d="m 0,0 h 11 l 9,2 6,4 3,5 1,5 1,25 1,-6 4,-1 1,5 -2,9 -4,5 -4,2 -9,-1 -8,-5 -5,4 -5,2 -8,-1 -7,-4 -3,-5 -1,-10 4,-5 8,-4 13,-1 V 10 L 5,2 H 3 l 1,9 1,6 -1,4 -7,3 -10,-2 -3,-4 v -8 l 5,-6 6,-3 z"
       fill="#c39e24"
       id="path144" />
    <path
       transform="translate(293,1312)"
       d="m 0,0 h 15 l 9,4 6,8 1,6 v 18 l -1,6 h 2 l 1,-7 h 5 l -2,12 -3,5 -7,3 -9,-2 -5,-3 -4,2 -5,2 H -8 l -6,-4 -4,-6 v -9 l 5,-6 5,-3 15,-1 V 13 L 6,5 1,6 l 2,4 3,4 -1,6 -5,3 h -9 l -5,-2 -2,-3 v -6 l 6,-8 5,-3 z"
       fill="#578e2f"
       id="path146" />
    <path
       transform="translate(1026,80)"
       d="m 0,0 h 10 l 8,3 7,5 6,10 2,9 -3,10 -4,6 -7,6 -6,3 -11,1 -9,-3 -10,-9 -4,-9 V 19 l 4,-8 7,-7 z"
       fill="#fcb551"
       id="path148" />
    <path
       transform="translate(737,1071)"
       d="M 0,0 19,1 33,4 39,7 38,9 21,4 13,3 H -4 L -17,5 0,4 h 12 l 14,3 3,1 v 2 H 20 L 13,9 H -3 l -14,3 -9,4 -7,6 -3,7 1,9 3,5 4,3 3,1 h 12 l 6,-3 3,-3 1,-3 V 27 l -6,-3 -1,-5 3,-5 6,-2 6,1 4,6 2,15 v 22 l -18,1 -17,3 -10,5 -5,6 -2,2 v -2 l -3,1 -1,9 v 9 l 3,4 v 2 l 3,1 2,5 10,5 1,2 5,2 2,2 -9,-1 -12,-6 -6,-7 -4,-11 V 77 l 4,-11 7,-7 7,-4 -1,-3 -8,-7 -4,-8 V 27 l 3,-9 8,-9 10,-5 13,-3 z"
       fill="#f9c655"
       id="path150" />
    <path
       transform="translate(571,1315)"
       d="m 0,0 4,1 6,7 1,35 5,3 v 4 l -2,1 h -55 l -1,-5 1,-43 h 17 l 3,1 V 2 h 2 l -1,7 v 35 l 10,-1 V 23 l 1,-7 -1,-9 h 2 L -9,4 Z"
       fill="#474646"
       id="path152" />
    <path
       transform="translate(625,1045)"
       d="m 0,0 h 3 v 35 l 4,-1 21,-1 v 6 l -1,1 H 10 L 3,39 v 2 l -3,2 -4,9 -5,5 -4,2 h -7 l -5,-3 -3,-3 -3,-7 -2,-1 -1,20 h -1 l -1,-26 h -7 l -1,-5 4,-1 5,1 V 9 Z"
       fill="#a01007"
       id="path154" />
    <path
       transform="translate(802,843)"
       d="M 0,0 H 1 V 72 H -37 V 18 l 2,2 5,-7 1,2 h 3 l -1,4 h 16 l 1,-1 1,-2 1,3 h 2 l 2,7 h 2 l 1,2 z"
       fill="#fcb551"
       id="path156" />
    <path
       transform="translate(1222,1073)"
       d="m 0,0 h 9 l 6,2 v 2 l 9,-1 5,1 V 6 H 27 V 8 H 19 L 12,7 H -4 l -15,3 -12,6 -4,5 -2,5 v 7 l 3,7 4,4 3,1 h 13 l 7,-4 3,-6 V 25 l -6,-3 -1,-1 v -7 l 5,-3 7,-1 5,4 2,4 1,6 v 30 l -19,1 -16,3 -9,5 -6,7 -1,2 v 14 l 1,7 -4,-4 -2,-4 -3,-1 -1,2 V 74 l 3,-8 7,-8 8,-5 -2,-4 -7,-5 -3,-5 -1,-4 V 24 l 4,-10 7,-7 17,-5 z"
       fill="#f9c756"
       id="path158" />
    <path
       transform="translate(1321,1083)"
       d="M 0,0 11,1 V 89 L 1,90 v 2 l 44,1 h 132 l 1,-4 h 2 l 1,-3 v 12 l -1,1 H -7 L -9,95 V 84 l 1,-1 H 3 L 2,7 -6,6 V 3 l 5,-1 z"
       fill="#f9c455"
       id="path160" />
    <path
       transform="translate(434,1047)"
       d="m 0,0 h 7 l 8,4 5,6 2,5 v 10 l -3,6 -7,6 -7,2 h -7 l 7,15 1,5 v 13 l -3,10 -6,8 -5,5 h -2 v -2 l -3,-1 4,-2 2,-4 4,-2 3,-8 V 57 l -3,1 -4,-9 -5,-6 -6,-5 -3,-1 -2,-17 1,-4 v -2 l 1,-5 3,-3 h 2 V 4 l 3,-1 3,1 V 1 H 0 Z"
       fill="#fac354"
       id="path162" />
    <path
       transform="translate(1007,1092)"
       d="m 0,0 2,4 1,15 4,20 6,15 7,10 9,8 13,6 14,4 7,1 h 22 l 24,-5 10,1 2,-39 2,-6 5,1 1,2 -1,38 -1,15 h -14 l -2,-2 -9,1 -16,3 H 59 L 41,88 25,80 16,73 9,65 2,51 -2,37 V 17 L -1,1 Z"
       fill="#f9c655"
       id="path164" />
    <path
       transform="translate(1090,1312)"
       d="m 0,0 h 7 l 9,3 5,4 2,4 v 8 L 19,25 15,27 8,26 1,20 2,13 6,6 H 2 l -2,5 -1,3 v 22 l 4,9 4,1 6,-5 5,-7 h 5 l -3,11 -7,7 -9,3 h -8 l -9,-3 -6,-5 -5,-7 -1,-3 V 17 l 5,-8 6,-5 7,-3 z"
       fill="#c39b24"
       id="path166" />
    <path
       transform="translate(756,361)"
       d="m 0,0 h 3 v 2 l 4,2 14,9 16,8 21,7 3,3 -1,2 -19,4 H 21 L 1,34 -15,29 -32,21 V 18 L -5,3 Z"
       fill="#414241"
       id="path168" />
    <path
       transform="translate(1441,1089)"
       d="m 0,0 5,2 2,3 1,19 v 58 l -1,2 -5,1 -3,1 -9,-2 -3,-1 V 17 l 4,-8 5,-6 z"
       fill="#f7c454"
       id="path170" />
    <path
       transform="translate(729,1313)"
       d="m 0,0 h 18 l 6,4 4,6 1,5 h -2 v 6 l -5,4 H 15 L 7,20 6,14 10,10 h 4 L 12,6 7,7 3,13 v 15 l 2,12 3,4 h 7 l 5,-5 5,-7 h 3 l -1,9 -6,8 -9,4 H 1 l -10,-4 -8,-9 -3,-8 V 21 l 3,-8 5,-6 9,-6 z"
       fill="#1f1273"
       id="path172" />
    <path
       transform="translate(683,1312)"
       d="m 0,0 2,1 v 16 l -3,2 -10,-9 -4,-2 h -7 l -3,2 v 2 l 16,5 9,5 4,6 v 12 l -4,7 -6,5 -6,2 h -11 l -5,-2 -5,1 -4,1 -1,-3 V 32 l 4,1 9,11 6,3 7,-1 2,-2 1,-4 -16,-4 -6,-4 -6,-7 V 13 l 6,-8 5,-4 h 13 l 9,1 z"
       fill="#1e1074"
       id="path174" />
    <path
       transform="translate(734,1079)"
       d="m 0,0 h 16 l 16,3 8,4 1,3 h -5 l -1,8 -2,2 -9,2 -9,-1 -2,-6 -2,-4 -3,-5 -6,-1 -7,3 -1,6 1,2 6,3 v 11 l -3,5 -5,4 -3,1 h -12 l -6,-3 -4,-4 -2,-6 1,-10 8,-9 8,-4 11,-3 z"
       fill="#750b05"
       id="path176" />
    <path
       transform="translate(1218,1079)"
       d="m 0,0 h 16 l 15,3 7,3 -1,3 -2,1 -1,8 -7,3 L 18,20 12,18 10,10 5,5 -5,7 -6,8 v 7 l 7,4 v 10 l -3,6 -5,4 -3,1 h -13 l -7,-4 -3,-5 -1,-4 v -7 l 4,-8 8,-6 11,-4 z"
       fill="#760b05"
       id="path178" />
    <path
       transform="translate(362,1147)"
       d="m 0,0 4,1 1,2 40,1 16,3 6,3 -2,2 -5,1 1,9 -6,3 -3,1 v 1 L 36,29 H 13 L 5,28 -3,22 V 14 L 1,7 V 5 h -4 l -6,5 2,-4 z"
       fill="#730b05"
       id="path180" />
    <path
       transform="translate(1079,1042)"
       d="m 0,0 h 11 l 8,4 v 3 l 4,2 2,6 L 20,10 14,5 8,3 H 0 l -7,3 -6,8 -4,9 -3,19 v 38 l 2,15 4,14 7,10 5,3 5,1 h 8 l 7,-4 6,-7 7,-11 9,-18 h 16 l -1,2 -7,-1 -2,6 -8,16 -8,11 -8,9 -8,4 -12,1 -10,-3 -9,-8 -6,-13 -3,-11 -2,-20 V 51 l 1,-19 1,-7 h 3 l 1,-3 2,-1 4,-11 4,-2 2,-4 6,-3 z"
       fill="#f7c353"
       id="path182" />
    <path
       transform="translate(1208,1312)"
       d="m 0,0 10,1 6,3 4,4 2,7 v 20 l -1,12 5,1 1,5 -2,1 h -60 l -2,-2 1,-5 h 4 l 2,-3 4,7 h 11 l 5,1 v -6 h 9 V 9 l -7,3 -2,4 V 5 l 9,-2 z"
       fill="#589031"
       id="path184" />
    <path
       transform="translate(1249,1313)"
       d="m 0,0 h 13 l -1,9 h 6 l 1,18 v 14 l -1,1 h -5 l -1,5 2,1 -3,2 v 3 H 2 l -7,-4 -6,-7 -2,-5 V 14 l 4,-7 6,-6 z"
       fill="#599030"
       id="path186" />
    <path
       transform="translate(398,1312)"
       d="m 0,0 11,2 5,5 2,3 v 39 l 7,1 v 1 l -7,1 h -29 l 1,-4 7,1 v -2 h -7 V 13 l 3,-3 h 2 V 2 Z"
       fill="#c39d24"
       id="path188" />
    <path
       transform="translate(274,1028)"
       d="m 0,0 h 7 l 9,4 5,5 2,4 v 12 l -5,8 -5,4 -3,1 H -4 l -9,-6 -4,-8 V 14 l 3,-6 8,-6 z"
       fill="#b91108"
       id="path190" />
    <path
       transform="translate(509,1028)"
       d="m 0,0 h 8 l 9,4 6,7 1,11 -3,8 -8,7 -2,1 H -4 l -6,-4 -6,-7 V 13 l 4,-7 8,-5 z"
       fill="#b91108"
       id="path192" />
    <path
       transform="translate(426,1046)"
       d="M 0,0 H 11 L 10,2 9,3 H 0 L -2,2 v 3 h -6 v 2 l -5,5 1,5 -2,1 1,19 -10,-2 -7,-1 h -8 l -15,3 -9,4 -8,6 -5,8 -1,3 v 17 l 3,8 6,7 10,6 v 3 l -2,1 h -10 l -1,-2 -8,-8 -6,-12 -1,-4 V 57 l 5,-12 9,-10 14,-7 11,-2 h 19 l 6,1 1,-2 1,-9 6,-10 8,-5 z"
       fill="#fbc757"
       id="path194" />
    <path
       transform="translate(58,1029)"
       d="m 0,0 h 18 v 1 l -14,1 7,3 7,2 1,1 v 129 h -2 v 4 l -9,1 -7,-2 -1,5 -2,-3 v -4 l 2,-1 H 12 L 11,94 V 14 L 8,15 H 0 L -1,14 V 1 Z"
       fill="#fccd58"
       id="path196" />
    <path
       transform="translate(1327,1313)"
       d="m 0,0 9,1 9,6 4,5 2,5 v 16 l -4,9 -7,7 -10,4 H -8 l -8,-2 -1,-5 2,-1 h 6 l 2,1 7,1 V 6 l -2,1 h -6 l 1,-6 z"
       fill="#5a9131"
       id="path198" />
    <path
       transform="translate(1055,1055)"
       d="m 0,0 1,4 -3,15 -1,19 -2,-2 -2,5 -5,4 -14,5 -5,1 -4,-2 -5,-8 -2,-1 -1,-11 4,-13 6,-11 3,1 2,3 2,8 2,4 3,1 h 7 l 7,-6 h 2 L -2,6 Z"
       fill="#a01007"
       id="path200" />
    <path
       transform="translate(561,1312)"
       d="M 0,0 H 7 L 12,2 8,5 2,8 1,11 2,24 1,31 0,46 -2,47 h -8 l -1,-37 2,-5 h -2 v 2 h -19 l -1,42 -1,2 3,1 h -2 v 2 h -164 l -25,-1 v -1 l 20,-1 v -2 l -3,-1 v -1 h 9 l -1,4 h 116 l 12,-2 11,1 10,-2 1,-5 2,4 11,1 V 7 L -38,6 V 2 l 12,-1 h 13 l 1,1 h 7 z"
       fill="#675e38"
       id="path202" />
    <path
       transform="translate(1029,1314)"
       d="m 0,0 h 29 v 46 h 5 v 1 L 19,49 H 10 L 6,45 V 5 H 1 Z"
       fill="#f58c34"
       id="path204" />
    <path
       transform="translate(275,1022)"
       d="m 0,0 12,1 8,3 7,6 4,9 v 13 l -4,8 -5,5 -5,3 -8,2 H -5 l -9,-3 -9,-8 -3,-8 V 20 l 4,-10 8,-7 5,-2 z m -1,6 -8,3 -7,6 -2,5 v 10 l 4,8 9,6 H 9 l 6,-3 5,-6 2,-4 V 19 L 17,11 9,7 6,6 Z"
       fill="#fbc456"
       id="path206" />
    <path
       transform="translate(629,1038)"
       d="M 0,0 H 5 V 37 L 17,36 H 31 V 53 H 21 v -1 h 9 v -7 l -3,1 v -4 l -2,-1 -1,4 -1,-4 -24,1 V 7 l -35,9 h -3 v 25 h -8 v 4 h 7 l 1,1 v 50 h -1 V 47 h -5 v 6 l -4,-1 -5,1 -3,-2 V 37 l 1,-1 10,1 V 11 l 7,-2 z"
       fill="#fbad4b"
       id="path208" />
    <path
       transform="translate(830,1019)"
       d="m 0,0 h 61 l 1,3 -1,19 v 53 l 1,73 6,1 -1,4 -8,1 -2,-1 V 6 L 55,5 18,7 V 69 H 17 L 16,10 10,13 6,12 v 2 H 0 L -1,1 Z"
       fill="#fcc857"
       id="path210" />
    <path
       transform="translate(509,1022)"
       d="m 0,0 13,1 10,4 7,8 2,5 v 15 l -4,8 -8,6 -4,2 -7,1 H -2 l -9,-2 -9,-7 -4,-8 V 17 l 3,-6 5,-6 9,-4 z m 0,6 -8,3 -5,5 -3,5 v 14 l 7,8 5,3 h 15 l 6,-4 5,-6 2,-6 L 23,17 17,10 8,6 Z"
       fill="#fbc455"
       id="path212" />
    <path
       transform="translate(967,1314)"
       d="m 0,0 h 15 l 8,2 v 2 l 5,1 1,-3 h 6 l 1,2 -2,4 -5,4 H 26 V 49 L 6,51 3,49 5,44 V 6 L 0,5 -1,1 Z"
       fill="#0c265d"
       id="path214" />
    <path
       transform="translate(190,1054)"
       d="m 0,0 4,2 5,12 3,9 2,14 V 58 H 13 V 41 l -5,1 -5,5 -5,1 -6,1 h -8 l -6,-4 -1,-2 h -3 l -1,30 h -1 l -1,-54 7,1 5,6 8,-1 8,-4 4,-3 H 6 L 4,10 0,3 Z"
       fill="#a11007"
       id="path216" />
    <path
       transform="translate(488,1314)"
       d="M 0,0 H 29 V 41 L 28,47 17,49 6,48 V 5 L 1,4 Z"
       fill="#f18c34"
       id="path218" />
    <path
       transform="translate(352,1188)"
       d="m 0,0 8,1 6,3 -1,6 -1,10 3,7 1,3 4,2 8,2 h 23 l 9,-3 6,-4 4,-5 5,-4 3,3 -4,9 -5,4 -12,4 -11,2 H 25 L 12,37 0,33 -8,27 -11,22 V 11 l 4,-6 5,-4 z"
       fill="#490a07"
       id="path220" />
    <path
       transform="translate(933,1314)"
       d="m 0,0 h 27 l 1,49 -1,2 H 8 L 6,47 7,5 H 1 Z"
       fill="#1c0d74"
       id="path222" />
    <path
       transform="translate(1127,1126)"
       d="M 0,0 H 2 L 1,31 0,46 -11,45 -35,50 h -22 l -15,-3 -13,-5 -4,-2 -2,-4 2,-1 12,1 5,-1 2,-7 h 2 l 5,9 7,6 10,3 12,-1 8,-4 9,-10 9,-14 z"
       fill="#4a0a07"
       id="path224" />
    <path
       transform="translate(885,1039)"
       d="m 0,0 h 1 v 59 l -9,4 h -19 l -6,-9 -2,-2 -1,7 -1,73 h -1 V 49 l 2,-21 5,5 7,6 13,-1 8,-3 3,-1 z"
       fill="#a21007"
       id="path226" />
    <path
       transform="translate(1211,1072)"
       d="m 0,0 h 28 l 14,3 10,5 7,8 4,10 1,7 1,18 v 17 h 9 l 7,1 -4,2 v 8 l -2,7 h -1 l -1,-8 -2,4 -2,9 -4,2 H 60 L 58,91 57,49 56,33 53,22 47,15 35,10 38,9 V 7 h 2 V 5 H 26 L 25,3 20,2 H 11 L -7,4 -21,8 V 6 L -7,1 Z"
       fill="#fac756"
       id="path228" />
    <path
       transform="translate(115,1061)"
       d="M 0,0 H 1 V 91 H 0 V 37 h -7 l -6,2 h -11 l -3,-1 v -2 h -2 l -4,-5 -3,-1 v 13 h -1 V 15 l 1,-4 h 2 V 9 l 4,2 v 2 l 5,2 12,-1 8,-4 h 5 z"
       fill="#a01007"
       id="path230" />
    <path
       transform="translate(427,1315)"
       d="m 0,0 h 20 l 2,3 V 47 H 1 L 0,6 -2,3 Z"
       fill="#fcb450"
       id="path232" />
    <path
       transform="translate(571,1315)"
       d="m 0,0 4,1 6,7 1,35 5,3 v 4 l -23,-1 -4,-2 1,-24 1,-7 -1,-9 h 2 L -9,4 Z"
       fill="#08245f"
       id="path234" />
    <path
       transform="translate(389,1084)"
       d="m 0,0 h 7 l 4,4 1,2 V 51 L 9,56 7,57 H 0 L -4,54 -5,51 -6,29 V 13 L -4,3 Z"
       fill="#fac656"
       id="path236" />
    <path
       transform="translate(1026,80)"
       d="m 0,0 h 10 l 8,3 7,5 3,4 v 6 l -3,1 v 2 l -4,2 1,2 H 14 L 6,27 -5,25 -16,19 -17,18 V 13 L -6,2 Z"
       fill="#f98e36"
       id="path238" />
    <path
       transform="translate(661,410)"
       d="m 0,0 2,1 -3,3 -2,-1 1,3 -4,9 -3,28 2,10 1,2 -2,7 h -2 v -2 l -6,-1 -3,-3 -1,-13 -1,-4 -3,-16 -8,-3 -3,-5 -1,2 -1,-3 19,-7 z"
       fill="#f88c34"
       id="path240" />
    <path
       transform="translate(733,1073)"
       d="m 0,0 h 17 l 16,3 13,4 7,8 4,9 1,6 2,36 6,1 -1,6 h -3 l -2,3 -1,1 h 5 v 10 l -2,4 -2,1 H 54 L 53,90 52,48 50,29 47,21 40,13 29,9 33,8 V 6 L 20,4 16,3 H 2 l -16,1 1,-2 z"
       fill="#fac655"
       id="path242" />
    <path
       transform="translate(377,1194)"
       d="m 0,0 35,1 4,2 1,7 -6,7 -6,3 -6,1 H 6 L -2,18 -4,15 V 4 Z"
       fill="#fdfffe"
       id="path244" />
    <path
       transform="translate(873,523)"
       d="m 0,0 h 31 v 11 l 1,3 h -79 v -1 l 10,-1 5,-4 14,-4 10,-3 z"
       fill="#0b3bab"
       id="path246" />
    <path
       transform="translate(517,1073)"
       d="m 0,0 20,1 1,1 -1,92 4,1 v 4 H 15 L 14,98 V 7 l -48,-1 2,5 -3,-1 -1,-4 1,-1 10,-1 h 19 l 1,-3 z"
       fill="#f3c04f"
       id="path248" />
    <path
       transform="translate(949,155)"
       d="m 0,0 h 5 l -2,4 -8,10 -22,24 -5,-5 -8,-11 -4,-5 V 15 L -17,5 Z"
       fill="#fdfffe"
       id="path250" />
    <path
       transform="translate(620,1046)"
       d="m 0,0 5,1 1,5 -5,17 -6,8 -3,2 -11,-2 -4,-5 -4,-3 2,-6 3,-11 z"
       fill="#ba1209"
       id="path252" />
    <path
       transform="translate(742,380)"
       d="m 0,0 5,3 1,3 5,-1 3,-1 17,3 9,1 1,-2 11,-1 8,2 2,6 h 2 l 1,-4 h 7 l 3,3 -1,2 -19,4 H 35 L 15,15 -1,10 -6,8 V 6 l 2,-2 1,-3 3,2 z"
       fill="#414249"
       id="path254" />
    <path
       transform="translate(1000,1312)"
       d="m 0,0 10,1 5,3 4,5 1,3 V 47 H 19 L 18,22 15,21 14,18 12,17 11,21 7,20 V 15 L 12,13 14,9 2,8 -1,7 v 39 l -1,1 h -9 V 14 l 7,-5 1,-4 h -6 l -1,2 -5,-1 V 4 L -23,3 V 2 h 17 z"
       fill="#675d38"
       id="path256" />
    <path
       transform="translate(654,1079)"
       d="m 0,0 3,1 v 3 h 2 v 7 l -10,1 -15,-1 1,73 2,1 h -3 v 4 h 5 v 1 h -6 l -4,-4 -1,-7 V 5 h 24 z"
       fill="#f6c051"
       id="path258" />
    <path
       transform="translate(293,1312)"
       d="m 0,0 h 15 l 9,4 6,8 1,6 v 12 l -3,6 h -3 l 1,-2 -1,-1 -3,-6 -5,-5 v -3 h 1 v -6 h 5 v 2 l 3,-1 v 2 h 2 L 26,9 21,7 15,4 2,5 v 4 l 4,5 -1,6 -5,3 h -9 l -5,-2 -2,-3 v -6 l 6,-8 5,-3 z"
       fill="#58750c"
       id="path260" />
    <path
       transform="translate(429,1052)"
       d="m 0,0 h 7 l 7,4 5,6 v 10 l -5,6 -4,2 -9,-1 -6,-6 v -5 l 6,-3 v -3 l -6,-1 -5,3 -2,7 v 12 h -3 l -1,-2 V 17 l 3,-8 8,-7 z"
       fill="#b71108"
       id="path262" />
    <path
       transform="translate(830,1166)"
       d="m 0,0 h 8 l 2,2 -1,3 2,1 -3,2 4,1 54,1 V 8 L 64,6 h 3 V 3 L 64,1 66,0 h 6 l 1,1 1,13 -1,2 H 1 L 0,15 Z"
       fill="#f4c151"
       id="path264" />
    <path
       transform="translate(273,1073)"
       d="m 0,0 h 16 l 13,1 v 33 l -1,37 -1,20 -1,-4 h -2 v 5 H 23 V 5 H 3 V 4 L -17,3 V 2 L -2,1 Z"
       fill="#fcca59"
       id="path266" />
    <path
       transform="translate(1379,1102)"
       d="M 0,0 H 4 V 64 H -5 V 4 Z"
       fill="#fdfffe"
       id="path268" />
    <path
       transform="translate(1437,1101)"
       d="M 0,0 H 3 L 4,7 V 65 H -5 V 8 l 2,-6 z"
       fill="#fdfffe"
       id="path270" />
    <path
       transform="translate(249,1078)"
       d="m 0,0 47,1 -2,2 h -6 l 2,2 -1,10 -4,6 -12,1 -5,-1 -4,-5 1,-6 4,-7 H 10 V 45 H 9 L 8,6 1,5 -1,1 Z"
       fill="#a01007"
       id="path272" />
    <path
       transform="translate(117,1036)"
       d="m 0,0 21,1 9,3 7,8 4,9 1,14 1,4 V 53 L 41,54 39,46 37,23 H 35 L 33,16 24,9 14,7 7,8 14,9 v 1 H 6 V 34 L 5,44 3,43 2,29 0,25 Z"
       fill="#fcc758"
       id="path274" />
    <path
       transform="translate(621,354)"
       d="m 0,0 h 2 l 1,28 -8,3 -18,5 -6,1 v -4 l 9,-10 9,-11 z"
       fill="#fdfffe"
       id="path276" />
    <path
       transform="translate(1080,1036)"
       d="m 0,0 12,1 10,5 7,7 10,16 4,7 -1,4 -5,-5 -7,-11 -2,-2 1,7 L 25,25 21,15 18,13 17,10 10,7 H -1 l -9,3 -5,5 -4,9 -3,5 -4,2 1,-8 4,-10 8,-9 6,-3 z"
       fill="#fccd51"
       id="path278" />
    <path
       transform="translate(655,1147)"
       d="m 0,0 h 2 l 1,6 -5,10 -8,8 -8,4 -3,1 h -18 l -10,-3 -10,-6 -4,-7 V 8 l 5,5 14,7 h 9 l 5,-4 1,-6 3,1 1,9 9,1 8,-5 5,-8 z"
       fill="#500906"
       id="path280" />
    <path
       transform="translate(434,1047)"
       d="m 0,0 h 7 l 8,4 5,6 2,5 v 10 l -3,6 -7,6 -2,1 H 2 L 4,34 0,33 9,30 13,25 V 15 L 8,9 2,6 h -7 l -8,4 -5,6 -2,6 -1,10 h -1 l -1,-16 2,-1 -1,-4 4,-5 h 2 V 4 l 3,-1 3,1 V 1 H 0 Z"
       fill="#f8c454"
       id="path282" />
    <path
       transform="translate(1131,1030)"
       d="m 0,0 h 1 l 2,45 v 10 h -14 l -4,-4 -8,-16 -1,-7 v -3 l 4,4 6,11 5,5 h 3 l 1,1 V 8 l 2,-4 2,1 z"
       fill="#fbc857"
       id="path284" />
    <path
       transform="translate(1124,1339)"
       d="m 0,0 h 10 l 3,3 2,3 -2,4 1,2 V 8 l 4,1 v 6 l -2,1 -3,7 -4,2 H 0 L -5,23 -8,18 -9,8 -5,3 Z"
       fill="#fcb551"
       id="path286" />
    <path
       transform="translate(483,1079)"
       d="m 0,0 h 47 v 1 h -7 v 2 h 2 v 7 l -3,7 -5,4 -2,1 H 24 L 20,20 16,14 17,9 22,2 10,1 V 4 L 2,5 Z"
       fill="#a01007"
       id="path288" />
    <path
       transform="translate(58,1029)"
       d="m 0,0 h 18 v 1 l -14,1 7,3 7,2 1,1 V 131 H 18 L 17,115 16,108 15,80 V 20 L 17,8 H 5 L 2,14 H -1 V 1 Z"
       fill="#fba546"
       id="path290" />
    <path
       transform="translate(683,528)"
       d="M 0,0 H 23 L 51,2 55,5 54,9 39,10 -8,9 -9,4 -6,2 h 6 z"
       fill="#0a3bab"
       id="path292" />
    <path
       transform="translate(734,1079)"
       d="m 0,0 h 16 l 16,3 8,4 1,3 h -5 l -1,8 -2,2 -9,2 L 15,21 13,15 11,11 8,6 6,4 1,3 Z"
       fill="#a01007"
       id="path294" />
    <path
       transform="translate(746,1131)"
       d="m 0,0 2,1 v 31 l -2,2 h -2 l -5,4 -4,-1 -2,-9 V 13 l 3,-9 4,-3 z"
       fill="#f4c251"
       id="path296" />
    <path
       transform="translate(1041,1289)"
       d="m 0,0 h 12 l 5,3 2,4 v 7 l -4,6 -4,2 H 2 L -4,19 -7,13 -5,3 Z"
       fill="#ed8d32"
       id="path298" />
    <path
       transform="translate(681,1334)"
       d="m 0,0 h 2 l 4,6 v 12 l -4,7 -6,5 -6,2 h -11 l -5,-2 -5,1 -4,1 -1,-3 V 10 l 4,1 9,11 6,3 7,-1 1,-1 h 6 l 2,-5 z"
       fill="#1b0e74"
       id="path300" />
    <path
       transform="translate(433,1289)"
       d="m 0,0 h 11 l 6,3 1,3 v 8 l -2,5 -6,3 H 2 L -3,20 -7,15 V 6 l 4,-5 z"
       fill="#f8b34d"
       id="path302" />
    <path
       transform="translate(426,1206)"
       d="m 0,0 3,1 1,3 -4,8 -5,4 -12,4 -11,2 h -21 l -2,-1 v -2 l -9,-1 -9,-3 v -2 h -2 l -2,-4 3,-2 5,-1 2,-2 v 2 h 2 l 3,4 v 2 l 4,2 8,2 h 23 l 9,-3 6,-4 4,-5 z"
       fill="#142c55"
       id="path304" />
    <path
       transform="translate(1218,1079)"
       d="m 0,0 h 16 l 15,3 7,3 -1,3 -2,1 -1,8 -7,3 L 18,20 12,18 10,10 5,4 0,3 Z"
       fill="#a00f07"
       id="path306" />
    <path
       transform="translate(501,1289)"
       d="m 0,0 h 11 l 6,4 2,5 -1,6 -5,6 -2,1 H 2 L -3,20 -7,15 V 7 l 3,-5 z"
       fill="#f28b34"
       id="path308" />
    <path
       transform="translate(432,1104)"
       d="m 0,0 h 2 l 1,3 v 16 l -4,9 -5,3 -4,4 2,1 v 2 l -7,3 -3,2 2,4 h -49 l -1,-2 3,-3 h 2 v -2 h 31 l 11,-3 9,-5 6,-8 3,-9 z"
       fill="#f7ce4f"
       id="path310" />
    <path
       transform="translate(988,437)"
       d="m 0,0 h 2 l 2,10 4,4 12,5 1,2 L 8,25 5,28 3,39 H 0 l -3,-9 -8,-7 -9,-1 1,-3 10,-4 5,-5 3,-5 z"
       fill="#fab650"
       id="path312" />
    <path
       transform="translate(1224,1132)"
       d="M 0,0 H 7 V 28 L 4,33 1,36 H -5 L -7,31 V 9 l 3,-6 z"
       fill="#f9c756"
       id="path314" />
    <path
       transform="translate(531,315)"
       d="m 0,0 3,1 3,11 5,4 11,3 1,2 -14,5 -3,4 -3,9 H 0 l -2,-9 -5,-5 -10,-3 4,-4 8,-3 3,-4 z"
       fill="#fab750"
       id="path316" />
    <path
       transform="translate(584,1085)"
       d="M 0,0 H 5 L 6,49 7,67 9,75 8,79 6,73 H 4 L 3,67 H 1 L -1,64 V 6 Z"
       fill="#fcd654"
       id="path318" />
    <path
       transform="translate(1180,1149)"
       d="m 0,0 2,1 4,9 9,6 4,2 10,-1 5,-3 2,-1 3,5 h 6 l 5,-4 -2,6 -9,6 -3,1 H 20 L 9,23 2,17 0,13 Z"
       fill="#4b0907"
       id="path320" />
    <path
       transform="translate(475,1073)"
       d="M 0,0 37,1 V 4 L 33,5 H 17 L 7,6 v 4 H 18 V 55 H 17 L 16,28 15,49 H 14 L 12,18 8,17 0,18 -1,17 V 1 Z"
       fill="#fcc858"
       id="path322" />
    <path
       transform="translate(1057,101)"
       d="m 0,0 2,4 -2,10 -5,8 -7,6 -6,3 -11,1 -9,-3 -10,-9 -3,-6 1,-3 2,5 16,4 h 16 l 13,-3 1,-5 z"
       fill="#fccb59"
       id="path324" />
    <path
       transform="translate(494,1155)"
       d="m 0,0 2,2 3,10 4,2 9,1 7,-1 9,-6 1,-5 h 1 l 2,13 8,1 2,3 -1,1 h -57 l -2,-1 v -3 l 11,-1 z"
       fill="#4c0c07"
       id="path326" />
    <path
       transform="translate(1284,1148)"
       d="m 0,0 h 1 v 11 l -5,10 -7,5 -6,2 h -16 l -11,-4 -6,-5 -2,-5 15,5 8,1 7,-2 6,-4 3,2 8,-1 2,-9 z"
       fill="#4a0a06"
       id="path328" />
    <path
       transform="translate(801,1143)"
       d="m 0,0 h 1 v 12 l -3,10 -6,7 -6,3 -4,1 h -16 l -11,-4 -7,-7 v -3 h 2 v 2 l 5,2 3,2 12,1 7,-2 4,-4 1,-3 h 2 v 3 h 2 v 2 l 8,-1 3,-14 2,-6 z"
       fill="#490906"
       id="path330" />
    <path
       transform="translate(673,950)"
       d="m 0,0 4,1 23,1 h 216 l 17,-1 6,-1 v 2 h 5 L 269,4 259,5 -18,4 -20,2 h 11 z"
       fill="#fccb59"
       id="path332" />
    <path
       transform="translate(696,1148)"
       d="m 0,0 h 1 v 7 l 4,2 5,6 7,4 5,1 10,-2 5,-4 3,6 5,-1 5,-5 -1,5 -4,5 -9,4 H 20 L 9,24 3,19 0,14 Z"
       fill="#4d0907"
       id="path334" />
    <path
       transform="translate(1313,1074)"
       d="M 0,0 H 53 L 69,1 59,6 H 10 v 3 h 8 v 1 H 9 L 7,12 5,11 4,13 2,12 v 3 H 7 L 6,17 H 1 L 0,16 Z"
       fill="#fcb350"
       id="path336" />
    <path
       transform="translate(681,216)"
       d="M 0,0 H 3 V 2 H 1 l -2,9 -5,10 -3,12 -3,5 v 9 l -2,12 v 9 l 2,19 5,17 4,9 2,5 h 2 l 2,9 h 2 l 1,4 -2,1 -9,-16 -7,-17 -4,-15 -1,-6 V 48 l 4,-19 6,-16 z"
       fill="#424342"
       id="path338" />
    <path
       transform="translate(260,1152)"
       d="m 0,0 h 1 l 2,10 4,6 2,1 h 13 l 12,-7 1,10 h 10 l 1,4 h -56 v -3 l 9,-1 z"
       fill="#480d08"
       id="path340" />
    <path
       transform="translate(235,1290)"
       d="m 0,0 h 15 l 7,2 10,-1 1,1 V 26 L 32,28 28,26 22,16 13,8 H 2 L 4,4 8,2 0,1 Z"
       fill="#5b8a2e"
       id="path342" />
    <path
       transform="translate(1333,1149)"
       d="m 0,0 h 1 l 1,11 2,6 8,3 h 12 l 5,-3 h 5 l 2,5 10,4 v 1 H -11 V 23 H 0 Z"
       fill="#4b0f0a"
       id="path344" />
    <path
       transform="translate(1101,1315)"
       d="m 0,0 5,2 4,4 3,5 -1,7 -5,5 -7,1 -6,-4 -3,-3 1,-7 4,-7 1,-2 z"
       fill="#c79e26"
       id="path346" />
    <path
       transform="translate(388,1079)"
       d="m 0,0 h 8 l 14,3 7,3 2,2 v 4 l -3,3 h -2 l -1,4 -5,3 h -3 v 2 H 15 L 14,52 H 13 L 12,11 10,7 3,5 V 3 L 1,2 Z"
       fill="#a31007"
       id="path348" />
    <path
       transform="translate(739,510)"
       d="M 0,0 2,1 1,3 h 2 l 1,-2 1,9 -80,1 -2,1 -2,-1 -19,-1 1,-5 h 7 l 9,1 h 35 l 17,2 h 14 l 4,-1 h 8 V 3 L -5,2 Z"
       fill="#fbca59"
       id="path350" />
    <path
       transform="translate(785,1319)"
       d="M 0,0 H 6 L 7,4 V 37 L 6,40 H 0 L -2,36 -3,27 V 14 L -2,2 Z"
       fill="#fafaf3"
       id="path352" />
    <path
       transform="translate(831,1020)"
       d="M 0,0 H 12 L 32,1 H 49 L 58,0 V 5 L 54,4 17,6 V 68 H 16 L 15,9 9,12 5,11 v 2 H -1 L 0,4 H 3 5 V 2 L 0,1 Z"
       fill="#f98c35"
       id="path354" />
    <path
       transform="translate(611,1319)"
       d="M 0,0 H 6 L 8,2 V 38 L 7,40 H 1 L -1,37 V 2 Z"
       fill="#fbfdf9"
       id="path356" />
    <path
       transform="translate(830,1019)"
       d="m 0,0 h 61 l 1,3 -3,55 -1,25 H 57 V 6 h 2 V 1 L 50,3 H 33 L 4,2 6,3 V 5 H 4 L 3,7 2,6 0,9 -1,1 Z"
       fill="#faad48"
       id="path358" />
    <path
       transform="translate(263,1339)"
       d="m 0,0 h 6 l -1,25 -3,1 -9,-2 -5,1 h -14 l 4,-2 5,-1 v -2 l 8,-6 7,-9 z"
       fill="#578e2e"
       id="path360" />
    <path
       transform="translate(850,1164)"
       d="m 0,0 4,4 7,2 h 8 l 8,-2 4,-2 3,-1 2,2 v 5 h 8 l 3,2 -1,3 -54,-1 -1,-3 h 6 l 1,-1 1,-7 z"
       fill="#4e0906"
       id="path362" />
    <path
       transform="translate(1343,1079)"
       d="m 0,0 h 27 v 2 h -9 l 1,12 -1,2 -7,2 H 3 l -4,-2 -1,-5 1,-6 z"
       fill="#a01007"
       id="path364" />
    <path
       transform="translate(420,1314)"
       d="m 0,0 h 30 v 46 l 6,-1 3,1 v 2 H 29 L 28,42 V 3 L 27,2 H 7 L 6,4 0,3 Z m 6,6 2,1 v 41 h 51 v 2 H -4 v -1 l -7,-1 3,-2 4,1 1,-2 H 7 Z"
       fill="#c39e24"
       id="path366" />
    <path
       transform="translate(1000,1321)"
       d="M 0,0 H 2 V 38 H -7 V 5 Z"
       fill="#fdfffe"
       id="path368" />
    <path
       transform="translate(1396,1073)"
       d="M 0,0 H 5 L 14,4 13,7 15,8 7,7 H -3 l -10,3 -8,7 -6,8 h -1 v -9 l 1,-8 9,-5 8,-2 z"
       fill="#fbc756"
       id="path370" />
    <path
       transform="translate(1128,1315)"
       d="m 0,0 h 8 l 3,14 -1,4 -7,3 -10,-2 -2,-2 V 10 L -8,7 0,2 Z"
       fill="#f6b14b"
       id="path372" />
    <path
       transform="translate(693,1142)"
       d="m 0,0 h 3 v 16 l 3,7 5,5 8,4 4,1 h 21 l -5,4 -4,1 v 2 L 23,41 18,39 17,36 10,34 5,29 4,26 0,22 -2,19 V 4 Z"
       fill="#fad551"
       id="path374" />
    <path
       transform="translate(1450,1163)"
       d="m 0,0 1,4 4,2 3,1 h 11 l 7,-2 3,-2 h 4 V 1 h 2 l 1,9 5,1 v 2 H -9 l 4,-4 3,1 z"
       fill="#480806"
       id="path376" />
    <path
       transform="translate(1205,1321)"
       d="M 0,0 H 2 V 37 L 0,38 H -6 V 3 Z"
       fill="#fdfffe"
       id="path378" />
    <path
       transform="translate(1391,1164)"
       d="m 0,0 1,3 h 2 l 3,3 h 18 l 9,-5 h 2 v 6 l 7,2 3,3 H -9 l 2,-3 h 7 z"
       fill="#4f0806"
       id="path380" />
    <path
       transform="translate(295,1080)"
       d="M 0,0 H 1 L 2,80 H 4 L 5,64 h 1 l 1,5 v 16 l 10,1 2,2 v 5 l -5,1 -2,3 H -15 V 96 H 11 L 10,93 1,92 0,91 Z"
       fill="#e9aa3d"
       id="path382" />
    <path
       transform="translate(558,1321)"
       d="M 0,0 H 1 V 38 H -7 V 5 l 5,-4 z"
       fill="#fdfffe"
       id="path384" />
    <path
       transform="translate(283,1316)"
       d="m 0,0 4,2 h 3 l 2,5 6,2 1,5 -3,4 -3,1 H 1 L -4,17 -6,14 V 8 Z"
       fill="#5a8e30"
       id="path386" />
    <path
       transform="translate(877,1321)"
       d="M 0,0 H 2 V 38 H -6 V 8 l 3,-6 z"
       fill="#fcfefd"
       id="path388" />
    <path
       transform="translate(1260,1321)"
       d="M 0,0 7,1 8,19 V 33 L 2,35 H -1 V 1 Z"
       fill="#fdfffe"
       id="path390" />
    <path
       transform="translate(1082,1029)"
       d="M 0,0 H 49 V 6 L 47,8 46,6 44,9 42,2 41,7 40,8 H 32 L 16,5 6,3 H -9 L -26,6 V 4 l 15,-3 z"
       fill="#fbc455"
       id="path392" />
    <path
       transform="translate(742,571)"
       d="m 0,0 2,4 v 2 l -5,1 h -75 v 2 l -6,-2 -15,-1 -1,-4 5,-1 h 8 l 11,2 V 5 L -9,4 -2,3 Z"
       fill="#efc14d"
       id="path394" />
    <path
       transform="translate(849,1321)"
       d="M 0,0 H 1 V 38 H -7 V 7 l 5,-6 z"
       fill="#fcfdfa"
       id="path396" />
    <path
       transform="translate(1325,1319)"
       d="M 0,0 H 2 V 40 H -4 L -5,39 V 1 Z"
       fill="#fdfffe"
       id="path398" />
    <path
       transform="translate(1390,1072)"
       d="m 0,0 h 14 l 12,3 8,6 3,2 6,-6 2,1 -7,8 1,3 2,4 -4,6 L 34,24 29,16 20,10 18,5 11,2 -8,3 -5,1 Z"
       fill="#efbb4b"
       id="path400" />
    <path
       transform="translate(1036,1322)"
       d="m 0,0 h 1 l 1,39 1,1 h 9 l 16,-1 -1,5 h -50 l -2,-3 7,-2 5,2 1,-4 H 0 Z"
       fill="#47493f"
       id="path402" />
    <path
       transform="translate(426,1046)"
       d="M 0,0 H 11 L 10,2 9,3 H 0 L -2,2 v 3 h -6 v 2 l -5,5 1,5 -2,1 1,19 -10,-2 -5,-2 3,-2 h -19 l -2,-2 22,-1 h 4 v -8 l 4,-10 5,-5 6,-4 z"
       fill="#fbc959"
       id="path404" />
    <path
       transform="translate(135,1038)"
       d="m 0,0 h 7 l 6,3 6,7 4,9 1,14 1,4 V 51 L 23,52 21,44 19,21 H 17 L 15,14 6,7 -4,5 -3,2 h 5 z"
       fill="#fdd552"
       id="path406" />
    <path
       transform="translate(1012,404)"
       d="m 0,0 3,1 2,7 7,4 v 4 l -8,4 -2,5 -3,-1 -4,-6 -7,-3 v -3 l 8,-4 z"
       fill="#fbbb52"
       id="path408" />
    <path
       transform="translate(363,1322)"
       d="m 0,0 h 3 v 36 l -7,1 V 4 l 1,-3 z"
       fill="#fdfffe"
       id="path410" />
    <path
       transform="translate(358,1359)"
       d="M 0,0 H 9 L 8,4 h 116 l 12,-2 11,2 14,1 V 6 L 104,7 H 8 L -17,6 V 5 L 3,4 V 2 L 0,1 Z"
       fill="#434440"
       id="path412" />
    <path
       transform="translate(1383,1082)"
       d="m 0,0 7,2 -1,8 -7,-1 -5,5 -5,8 -2,5 -1,57 h -1 V 25 l 1,-5 -2,-4 4,-4 7,-8 z"
       fill="#b31108"
       id="path414" />
    <path
       transform="translate(185,1046)"
       d="m 0,0 4,2 8,9 8,14 3,11 -1,5 -1,22 -2,17 -3,1 2,-15 V 45 L 15,28 9,12 2,3 Z"
       fill="#f9c253"
       id="path416" />
    <path
       transform="translate(680,341)"
       d="m 0,0 h 2 l 6,9 v 2 l 3,1 -3,2 -1,4 -5,-1 -17,8 -2,-1 2,-10 4,-2 H 0 L -1,4 Z"
       fill="#fbb24e"
       id="path418" />
    <path
       transform="translate(393,1321)"
       d="m 0,0 h 1 l 1,24 v 13 l -5,1 H -5 V 4 l 3,-3 z"
       fill="#fdfffe"
       id="path420" />
    <path
       transform="translate(648,1140)"
       d="m 0,0 h 4 v 2 l 6,1 -3,1 -2,11 -6,9 -6,4 h -7 v -4 h 3 v -2 l 4,-2 4,-8 2,-11 z"
       fill="#fbca56"
       id="path422" />
    <path
       transform="translate(1172,1157)"
       d="m 0,0 4,1 4,6 h 2 l 5,6 4,3 h -2 v 2 l 3,1 v 2 l 4,1 5,5 L 21,26 9,20 3,13 0,6 Z"
       fill="#f6c453"
       id="path424" />
    <path
       transform="translate(436,1054)"
       d="m 0,0 6,1 6,7 v 10 l -5,6 -4,2 -9,-1 4,-3 H 2 L 1,6 2,2 Z"
       fill="#a21007"
       id="path426" />
    <path
       transform="translate(514,365)"
       d="m 0,0 3,1 3,6 5,3 v 2 h 2 l -1,3 -7,2 -2,6 H 0 l -3,-6 -7,-3 2,-4 6,-2 z"
       fill="#fcbb53"
       id="path428" />
    <path
       transform="translate(681,1334)"
       d="m 0,0 h 2 l 4,6 v 12 l -4,7 -6,5 -2,1 h -11 v -4 l 7,-3 1,-1 h 6 l 2,-5 z"
       fill="#0e255e"
       id="path430" />
    <path
       transform="translate(734,177)"
       d="m 0,0 7,1 5,5 -1,7 -3,3 H 0 L -5,12 -6,6 -2,1 Z"
       fill="#ef8a31"
       id="path432" />
    <path
       transform="translate(573,1074)"
       d="m 0,0 h 6 l 2,2 1,3 v 4 h 7 l 1,1 V 60 H 16 V 11 h -5 v 6 L 7,16 2,17 -1,15 V 1 Z"
       fill="#f7b049"
       id="path434" />
    <path
       transform="translate(110,1165)"
       d="m 0,0 h 4 l 3,10 h -34 l -4,-2 2,-5 -2,-1 4,-1 6,4 h 14 z"
       fill="#450805"
       id="path436" />
    <path
       transform="translate(584,1048)"
       d="m 0,0 h 3 l 3,5 v 26 l -8,-1 -3,-3 h 4 V 1 Z"
       fill="#fbc054"
       id="path438" />
    <path
       transform="translate(62,1036)"
       d="m 0,0 13,1 v 8 l -1,4 -1,48 H 10 L 9,49 8,10 7,7 4,8 h -8 l 2,-1 z"
       fill="#fccb59"
       id="path440" />
    <path
       transform="translate(501,1289)"
       d="m 0,0 h 11 l 6,4 2,5 -1,6 -5,6 -2,-1 5,-6 L 12,8 8,6 7,5 -1,6 -3,16 -6,17 -7,15 V 7 l 3,-5 z"
       fill="#b69d25"
       id="path442" />
    <path
       transform="translate(1073,1037)"
       d="M 0,0 H 6 L 9,3 4,5 H 0 l -1,3 -8,7 -5,12 -3,3 h -2 l 1,-8 4,-10 8,-9 z"
       fill="#fdd051"
       id="path444" />
    <path
       transform="translate(1041,1289)"
       d="m 0,0 h 12 l 5,3 2,4 v 7 L 15,18 12,17 10,8 7,6 8,5 -3,6 -5,11 h -1 l 1,-8 z"
       fill="#c09e24"
       id="path446" />
    <path
       transform="translate(632,1064)"
       d="M 0,0 H 1 V 12 L 14,10 H 28 V 27 H 18 v -1 h 9 v -7 l -3,1 v -4 l -2,-1 -1,4 -1,-4 -24,1 1,-3 z"
       fill="#f98c35"
       id="path448" />
    <path
       transform="translate(822,179)"
       d="m 0,0 h 7 l 3,1 1,2 v 7 L 7,14 H -1 L -5,10 V 3 Z"
       fill="#ed8d31"
       id="path450" />
    <path
       transform="translate(1344,1352)"
       d="m 0,0 3,1 -2,4 -7,6 -8,3 h -11 l -8,-2 -1,-5 2,-1 h 6 l 5,2 9,1 z"
       fill="#4f5a24"
       id="path452" />
    <path
       transform="translate(758,198)"
       d="m 0,0 5,1 3,2 1,7 -5,5 H -2 L -7,11 V 5 l 4,-4 z"
       fill="#ee8931"
       id="path454" />
    <path
       transform="translate(919,513)"
       d="m 0,0 5,1 v 6 l -20,1 -34,-1 2,-2 4,-1 h 31 L -1,1 Z"
       fill="#fccb5a"
       id="path456" />
    <path
       transform="translate(777,179)"
       d="m 0,0 h 8 l 4,2 V 9 L 8,14 H 1 L -4,9 -3,3 Z"
       fill="#ed8a30"
       id="path458" />
    <path
       transform="translate(517,1073)"
       d="m 0,0 20,1 v 4 l -5,2 -49,-1 2,5 -3,-1 -1,-4 1,-1 10,-1 h 19 l 1,-3 z"
       fill="#fbaf4a"
       id="path460" />
    <path
       transform="translate(799,199)"
       d="m 0,0 h 8 l 3,2 1,7 -5,5 H 1 L -4,10 V 4 Z"
       fill="#f38d33"
       id="path462" />
    <path
       transform="translate(1177,1356)"
       d="m 0,0 4,5 1,2 h 11 l 7,1 V 4 h 8 l -2,4 h 20 l 1,2 H -4 L -6,8 -5,3 h 4 z"
       fill="#495b2a"
       id="path464" />
    <path
       transform="translate(1443,1086)"
       d="m 0,0 4,1 v 5 l -6,-2 -6,5 -5,8 -1,3 -1,65 h -1 V 17 l -1,-4 6,-9 3,-2 4,-1 4,1 z"
       fill="#ac1007"
       id="path466" />
    <path
       transform="translate(590,1326)"
       d="m 0,0 h 3 l -1,15 3,11 3,5 7,5 4,2 6,1 v 1 H 16 L 9,37 1,29 -2,21 V 4 Z"
       fill="#213458"
       id="path468" />
    <path
       transform="translate(843,1067)"
       d="M 0,0 H 1 L 2,102 H -1 V 34 Z"
       fill="#fdd656"
       id="path470" />
    <path
       transform="translate(293,1312)"
       d="m 0,0 h 15 l 9,4 6,8 v 3 H 28 L 26,9 21,7 15,4 2,5 v 4 l 2,3 H 1 L -3,8 V 6 L -7,7 -8,3 -5,1 Z"
       fill="#566f18"
       id="path472" />
    <path
       transform="translate(1222,1073)"
       d="m 0,0 h 9 l 6,2 v 2 l 9,-1 5,1 V 6 H 27 V 8 H 19 L 2,5 V 4 H -10 L -22,5 V 3 l 12,-2 z"
       fill="#fdd855"
       id="path474" />
    <path
       transform="translate(516,1355)"
       d="m 0,0 2,4 h 12 l -1,4 3,1 h -2 v 2 h -65 v -1 l 40,-1 1,-2 9,-2 z"
       fill="#756935"
       id="path476" />
    <path
       transform="translate(207,1086)"
       d="m 0,0 2,2 1,9 V 27 L 1,42 -3,44 -4,40 -2,23 -1,1 Z"
       fill="#fdd855"
       id="path478" />
    <path
       transform="translate(630,1040)"
       d="m 0,0 h 2 l 1,4 v 6 H 4 V 35 L 8,36 5,37 3,36 2,30 0,38 -2,37 V 12 Z"
       fill="#fcc959"
       id="path480" />
    <path
       transform="translate(486,1083)"
       d="M 0,0 H 7 V 45 H 6 L 5,18 4,39 H 3 L 1,8 -2,5 Z"
       fill="#fbc154"
       id="path482" />
    <path
       transform="translate(1019,1146)"
       d="m 0,0 4,5 9,10 10,6 15,6 v 2 l 4,1 -5,1 -13,-4 -9,-5 -3,-3 V 17 H 10 L 3,9 -1,2 Z"
       fill="#f5cd4c"
       id="path484" />
    <path
       transform="translate(1007,1092)"
       d="M 0,0 2,4 3,19 7,39 9,47 5,45 1,35 -1,26 V 1 Z"
       fill="#fbd852"
       id="path486" />
    <path
       transform="translate(426,1320)"
       d="m 0,0 2,1 v 41 h 51 v 2 h -63 v -1 l -7,-1 3,-2 4,1 1,-2 H 1 Z"
       fill="#e3942f"
       id="path488" />
    <path
       transform="translate(830,1019)"
       d="M 0,0 H 61 V 4 L 59,6 V 1 L 50,3 H 33 L 4,2 6,3 V 5 H 4 L 3,7 2,6 0,9 -1,1 Z"
       fill="#fcbd54"
       id="path490" />
    <path
       transform="translate(790,1140)"
       d="M 0,0 8,2 V 6 H 5 L 3,9 2,10 h 5 v 10 l -2,4 -2,1 h -6 l 3,-2 -2,-6 v -5 h 1 z"
       fill="#fac857"
       id="path492" />
    <path
       transform="translate(1313,1074)"
       d="m 0,0 h 53 l 1,3 H 25 L 13,2 H 10 4 L 7,5 6,8 H 1 L 0,7 Z"
       fill="#fccb5a"
       id="path494" />
    <path
       transform="translate(1108,1346)"
       d="m 0,0 h 5 l -3,11 -7,7 -9,3 h -8 l -3,-2 14,-1 2,-1 v -6 l 6,-7 z"
       fill="#47483e"
       id="path496" />
    <path
       transform="translate(386,1103)"
       d="m 0,0 2,1 v 28 l 3,2 v 2 h 6 l 1,4 -2,1 H 3 L 0,36 -1,31 V 1 Z"
       fill="#fcd852"
       id="path498" />
    <path
       transform="translate(1375,1173)"
       d="M 0,0 8,1 V 2 H 59 V 1 h 6 l 1,1 49,1 V 4 H -9 V 3 L 1,2 Z"
       fill="#c29f24"
       id="path500" />
    <path
       transform="translate(690,1160)"
       d="m 0,0 5,5 v 2 l 3,1 2,5 10,5 1,2 5,2 2,2 L 19,23 7,17 1,10 0,8 Z"
       fill="#f4c050"
       id="path502" />
    <path
       transform="translate(654,1079)"
       d="m 0,0 3,1 v 3 h 2 v 7 L -5,12 -20,11 V 6 L -2,5 Z"
       fill="#fcc556"
       id="path504" />
    <path
       transform="translate(1029,1314)"
       d="M 0,0 H 29 V 36 H 28 L 27,25 H 26 L 25,19 V 6 L 26,2 H 6 L 5,5 0,4 Z"
       fill="#a89b27"
       id="path506" />
    <path
       transform="translate(822,571)"
       d="M 0,0 7,2 V 5 H 78 V 6 L 39,7 H 0 Z"
       fill="#fccb5b"
       id="path508" />
    <path
       transform="translate(724,382)"
       d="m 0,0 6,2 6,3 V 6 L 3,5 2,9 h -12 v 3 l -6,-2 1,-4 4,-3 10,-1 z"
       fill="#fab44f"
       id="path510" />
    <path
       transform="translate(1371,1104)"
       d="M 0,0 1,4 0,7 v 13 l 1,15 1,1 V 49 L 1,59 -1,65 H -2 V 5 Z"
       fill="#f5a945"
       id="path512" />
    <path
       transform="translate(604,1173)"
       d="m 0,0 7,1 5,1 18,1 -1,4 -9,2 H 11 L 5,5 V 3 L 1,2 Z"
       fill="#f9d550"
       id="path514" />
    <path
       transform="translate(652,1078)"
       d="M 0,0 H 1 V 6 L 0,7 H -17 L -24,6 V 2 l 4,-1 z"
       fill="#b91108"
       id="path516" />
    <path
       transform="translate(297,1349)"
       d="m 0,0 2,3 2,2 3,-1 2,8 -10,5 h -11 l -6,-4 v -3 l 2,2 H -2 L 1,9 Z"
       fill="#516c12"
       id="path518" />
    <path
       transform="translate(561,1312)"
       d="M 0,0 H 7 L 12,2 8,5 2,8 1,11 2,24 1,31 0,46 H -1 V 8 L -3,7 -2,6 -4,5 -2,1 Z"
       fill="#3c404a"
       id="path520" />
    <path
       transform="translate(1189,1173)"
       d="m 0,0 7,1 4,1 16,1 -1,4 H 20 V 9 L 11,10 6,6 3,5 0,2 Z"
       fill="#f8d550"
       id="path522" />
    <path
       transform="translate(352,1094)"
       d="m 0,0 1,3 -3,7 V 32 L -6,31 -9,23 V 11 l 5,-3 3,-7 z"
       fill="#fad450"
       id="path524" />
    <path
       transform="translate(153,1161)"
       d="m 0,0 h 3 v 2 h 2 l 1,6 -7,3 -11,2 h -6 l 1,-3 12,-5 z"
       fill="#4a0806"
       id="path526" />
    <path
       transform="translate(1441,1089)"
       d="M 0,0 5,2 3,3 2,20 -1,19 v -7 l -6,3 h -2 l -1,-4 6,-8 z"
       fill="#f9c756"
       id="path528" />
    <path
       transform="translate(852,1312)"
       d="M 0,0 3,1 0,6 -1,46 h -1 l -1,-36 -5,4 -2,2 v -5 l 1,-2 -3,-5 -3,-3 5,1 2,2 z"
       fill="#2c305e"
       id="path530" />
    <path
       transform="translate(1239,1172)"
       d="m 0,0 5,1 7,2 18,1 1,3 -6,3 H 20 V 9 L 7,7 1,3 Z"
       fill="#f8d34f"
       id="path532" />
    <path
       transform="translate(939,1319)"
       d="m 0,0 h 1 v 42 l 1,4 -5,-1 -5,2 h -7 l 3,-2 3,-1 1,-6 v -3 h 8 z"
       fill="#293551"
       id="path534" />
    <path
       transform="translate(426,1206)"
       d="m 0,0 3,1 1,3 -4,8 -3,3 h -7 l -5,2 -3,2 -3,-1 3,-1 v -2 l 9,-5 5,-6 z"
       fill="#09235b"
       id="path536" />
    <path
       transform="translate(754,1345)"
       d="m 0,0 h 3 l -1,9 -6,8 -3,2 h -3 v -2 l -3,-2 -1,-2 7,-3 z"
       fill="#1f3159"
       id="path538" />
    <path
       transform="translate(1336,1316)"
       d="m 0,0 5,1 6,5 4,8 v 16 l -2,6 h -2 l 1,-4 V 24 L 8,11 6,8 V 5 L 3,4 Z"
       fill="#556f14"
       id="path540" />
    <path
       transform="translate(1260,1286)"
       d="m 0,0 h 29 l 1,1 V 41 H 29 L 28,5 27,3 H 3 L 5,7 0,6 -1,1 Z"
       fill="#838820"
       id="path542" />
    <path
       transform="translate(583,1091)"
       d="M 0,0 H 2 L 3,61 0,58 Z"
       fill="#fccb5a"
       id="path544" />
    <path
       transform="translate(845,1028)"
       d="M 0,0 2,1 1,16 0,28 H -3 V 5 L -14,6 V 5 h 5 l -1,-3 5,1 z"
       fill="#fcc555"
       id="path546" />
    <path
       transform="translate(78,1167)"
       d="M 0,0 3,1 V 6 L 5,7 39,8 V 9 H -13 L -15,5 0,4 Z"
       fill="#7e0c05"
       id="path548" />
    <path
       transform="translate(242,1075)"
       d="m 0,0 h 6 l 5,1 4,1 H 55 L 54,4 H 7 l 1,3 7,1 V 9 L 5,10 1,4 Z"
       fill="#fba445"
       id="path550" />
    <path
       transform="translate(646,1352)"
       d="m 0,0 5,2 v 3 l 5,2 1,2 7,3 7,1 v 1 H 14 L 9,12 4,13 0,14 -1,11 Z"
       fill="#2a3857"
       id="path552" />
    <path
       transform="translate(420,1050)"
       d="m 0,0 h 7 v 2 l 2,1 -8,4 -5,6 -2,6 -1,10 H -8 L -9,13 -7,12 -8,8 -4,3 h 2 V 1 Z"
       fill="#fba949"
       id="path554" />
    <path
       transform="translate(737,1071)"
       d="M 0,0 19,1 33,4 39,7 38,9 21,4 13,3 H -4 l -18,3 -4,-1 9,-3 z"
       fill="#ce7122"
       id="path556" />
    <path
       transform="translate(733,1073)"
       d="M 0,0 H 17 L 33,3 V 5 L 36,6 34,7 16,3 H 2 l -16,1 1,-2 z"
       fill="#fdd555"
       id="path558" />
    <path
       transform="translate(1393,1079)"
       d="m 0,0 h 10 l 4,2 v 8 l 1,5 -5,1 L 8,14 6,7 3,2 Z"
       fill="#a21007"
       id="path560" />
    <path
       transform="translate(432,1104)"
       d="m 0,0 h 2 l 1,3 v 16 l -4,9 -5,3 -3,3 -2,-1 6,-7 4,-11 z"
       fill="#fad251"
       id="path562" />
    <path
       transform="translate(1131,1030)"
       d="m 0,0 h 1 v 21 l -2,3 h -2 l -1,6 H -5 V 8 l 2,-4 2,1 z"
       fill="#fbc155"
       id="path564" />
    <path
       transform="translate(1169,1346)"
       d="m 0,0 2,1 -1,8 -2,6 -5,5 -7,1 -6,-2 v -2 l 9,1 3,-3 4,-11 V 1 Z"
       fill="#612e1a"
       id="path566" />
    <path
       transform="translate(326,1347)"
       d="m 0,0 h 5 l -2,12 -3,5 -7,3 -9,-2 -1,-2 10,2 v -2 l 3,-1 z"
       fill="#50391f"
       id="path568" />
    <path
       transform="translate(58,1029)"
       d="M 0,0 H 18 V 1 L 4,2 11,5 17,6 V 7 L 5,8 2,14 H -1 V 1 Z"
       fill="#f29436"
       id="path570" />
    <path
       transform="translate(249,1078)"
       d="M 0,0 30,1 V 2 L 10,3 V 45 H 9 L 8,6 1,5 -1,1 Z"
       fill="#b31108"
       id="path572" />
    <path
       transform="translate(787,1125)"
       d="m 0,0 3,4 v 24 l -1,4 1,6 2,1 H 0 L -1,38 V 24 Z"
       fill="#f9d751"
       id="path574" />
    <path
       transform="translate(1079,1042)"
       d="m 0,0 h 11 l 8,4 v 3 l 4,2 2,6 L 20,10 14,5 8,3 H 0 l -7,3 -5,4 -1,-2 4,-5 z"
       fill="#f9943a"
       id="path576" />
    <path
       transform="translate(1222,1116)"
       d="M 0,0 H 2 V 2 H 4 L 6,6 8,7 9,5 v 5 H -10 V 9 h 5 V 3 Z"
       fill="#fddc54"
       id="path578" />
    <path
       transform="translate(606,1046)"
       d="m 0,0 h 7 l 4,2 -24,6 -4,-1 -2,-5 h 14 z"
       fill="#fcac4b"
       id="path580" />
    <path
       transform="translate(270,1025)"
       d="m 0,0 h 10 l 4,4 H 4 l -8,3 -7,5 -1,-4 5,-6 z"
       fill="#fba647"
       id="path582" />
    <path
       transform="translate(504,1025)"
       d="M 0,0 H 12 V 3 L 1,5 -5,9 h -2 l -2,5 -2,-3 2,-5 6,-5 z"
       fill="#fcab4a"
       id="path584" />
    <path
       transform="translate(1211,1072)"
       d="m 0,0 h 28 l 7,1 V 3 L 11,2 -7,4 -21,8 V 6 L -7,1 Z"
       fill="#cd6d21"
       id="path586" />
    <path
       transform="translate(1375,1079)"
       d="m 0,0 h 2 l 1,8 -7,8 -3,3 v -9 l 2,-7 h 4 z"
       fill="#face4e"
       id="path588" />
    <path
       transform="translate(273,1073)"
       d="m 0,0 h 16 l 9,1 -2,2 -5,1 H 4 L -17,3 V 2 L -2,1 Z"
       fill="#fcd058"
       id="path590" />
    <path
       transform="translate(416,1220)"
       d="M 0,0 5,1 3,3 -12,7 -22,6 -36,4 V 3 l 28,-1 -2,2 4,-2 z"
       fill="#4a2b18"
       id="path592" />
    <path
       transform="translate(556,1314)"
       d="M 0,0 2,1 1,3 4,4 V 44 H 3 L 2,8 -5,12 -6,8 -4,3 h 3 z"
       fill="#7c6c33"
       id="path594" />
    <path
       transform="translate(761,1175)"
       d="M 0,0 26,1 23,4 11,6 0,3 Z"
       fill="#f7d34e"
       id="path596" />
    <path
       transform="translate(855,578)"
       d="M 0,0 H 48 L 47,4 46,3 6,2 0,1 Z"
       fill="#0b3593"
       id="path598" />
    <path
       transform="translate(307,1173)"
       d="M 0,0 H 7 V 8 L 6,9 H -5 L -15,8 V 7 L -6,6 -4,4 0,3 Z"
       fill="#fbc255"
       id="path600" />
    <path
       transform="translate(391,1107)"
       d="m 0,0 h 2 v 23 l -3,2 -1,-2 V 3 Z"
       fill="#fdfffe"
       id="path602" />
    <path
       transform="translate(1140,1354)"
       d="m 0,0 4,2 1,3 -4,5 -7,3 -8,-1 -4,-2 2,-1 h 9 l 4,-2 z"
       fill="#603c1a"
       id="path604" />
    <path
       transform="translate(438,1117)"
       d="m 0,0 h 1 v 7 l -5,10 -8,8 h -2 v -2 l -3,-1 4,-2 2,-4 4,-2 4,-4 V 7 h 2 z"
       fill="#eec04d"
       id="path606" />
    <path
       transform="translate(585,1057)"
       d="M 0,0 1,3 H 4 V 21 H -3 L -6,18 H 0 Z"
       fill="#fdda54"
       id="path608" />
    <path
       transform="translate(445,1181)"
       d="m 0,0 h 2 l 1,7 v 9 l -4,8 -4,3 1,-6 3,-10 z"
       fill="#fad651"
       id="path610" />
    <path
       transform="translate(762,204)"
       d="M 0,0 H 5 L 4,6 0,9 h -6 l -5,-5 h 2 l 1,-3 5,3 h 2 z"
       fill="#ecb145"
       id="path612" />
    <path
       transform="translate(1312,1358)"
       d="M 0,0 H 6 L 11,2 20,4 17,7 -1,6 -2,1 Z"
       fill="#52700c"
       id="path614" />
    <path
       transform="translate(681,1334)"
       d="m 0,0 h 2 l 4,6 v 7 l -3,1 -2,7 -2,3 -2,-1 2,-5 z"
       fill="#514e42"
       id="path616" />
    <path
       transform="translate(806,205)"
       d="M 0,0 H 5 L 4,5 0,8 H -6 L -11,4 V 1 l 10,1 z"
       fill="#f5ba4f"
       id="path618" />
    <path
       transform="translate(358,1359)"
       d="M 0,0 H 9 L 8,4 39,5 V 6 L 8,7 -17,6 V 5 L 3,4 V 2 L 0,1 Z"
       fill="#45483f"
       id="path620" />
    <path
       transform="translate(385,1083)"
       d="M 0,0 4,1 0,6 -1,14 H -2 V 8 l -7,1 -2,2 h -3 l 2,-5 6,-4 z"
       fill="#a21007"
       id="path622" />
    <path
       transform="translate(1278,1141)"
       d="m 0,0 h 14 l -4,2 v 8 L 8,17 H 7 L 6,9 4,13 H 3 L 2,2 Z"
       fill="#c79c25"
       id="path624" />
    <path
       transform="translate(1367,1075)"
       d="M 0,0 H 15 L 5,5 -18,4 -19,2 -2,1 0,2 Z"
       fill="#fa9e41"
       id="path626" />
    <path
       transform="translate(126,1042)"
       d="m 0,0 12,1 6,3 3,7 L 11,6 5,4 -3,3 Z"
       fill="#f9943a"
       id="path628" />
    <path
       transform="translate(1041,1289)"
       d="M 0,0 H 12 L 17,3 18,7 11,3 2,2 v 2 l 2,1 -7,1 -2,5 h -1 l 1,-8 z"
       fill="#5b6339"
       id="path630" />
    <path
       transform="translate(62,1172)"
       d="M 0,0 3,3 68,4 V 5 L 58,6 2,5 -1,4 Z"
       fill="#ca9e28"
       id="path632" />
    <path
       transform="translate(646,1074)"
       d="M 0,0 H 14 V 17 H 4 v -1 h 9 V 9 l -3,1 V 6 L 8,5 V 3 L -3,2 Z"
       fill="#e8ac3f"
       id="path634" />
    <path
       transform="translate(433,1289)"
       d="M 0,0 H 11 L 16,3 15,6 13,5 H -2 l -4,2 1,-4 z"
       fill="#4f4f41"
       id="path636" />
    <path
       transform="translate(493,1361)"
       d="m 0,0 12,2 14,1 v 1 h -42 l 3,-2 z"
       fill="#424442"
       id="path638" />
    <path
       transform="translate(419,1060)"
       d="M 0,0 H 2 L 0,4 -2,11 V 23 H -5 L -6,21 V 9 l 3,-8 z"
       fill="#ba1209"
       id="path640" />
    <path
       transform="translate(801,1143)"
       d="M 0,0 H 1 V 12 L -2,22 H -5 L -6,19 -4,14 -2,2 Z"
       fill="#7a0b05"
       id="path642" />
    <path
       transform="translate(1040,1168)"
       d="M 0,0 6,1 17,5 V 7 L 21,8 16,9 3,5 -1,1 Z"
       fill="#fbd250"
       id="path644" />
    <path
       transform="translate(1373,1153)"
       d="m 0,0 h 1 v 13 h 5 l -3,6 -3,1 -4,-1 2,-9 1,-9 z"
       fill="#fac556"
       id="path646" />
    <path
       transform="translate(960,1359)"
       d="M 0,0 11,1 8,3 9,6 11,7 H -19 V 6 L -3,5 0,6 Z"
       fill="#6c6138"
       id="path648" />
    <path
       transform="translate(488,1074)"
       d="M 0,0 H 24 V 3 L 20,4 H 2 Z"
       fill="#fcce58"
       id="path650" />
    <path
       transform="translate(612,1042)"
       d="M 0,0 5,1 2,4 -6,5 -11,7 H -21 L -22,5 Z"
       fill="#fcc657"
       id="path652" />
    <path
       transform="translate(120,1050)"
       d="M 0,0 H 2 V 30 L 0,29 -1,15 V 1 Z"
       fill="#fedd54"
       id="path654" />
    <path
       transform="translate(1082,1029)"
       d="M 0,0 12,1 20,4 16,5 6,3 H -9 L -26,6 V 4 l 15,-3 z"
       fill="#f98c35"
       id="path656" />
    <path
       transform="translate(488,1314)"
       d="M 0,0 H 29 V 8 H 28 L 27,3 16,2 H 9 L 8,4 H 1 Z"
       fill="#454740"
       id="path658" />
    <path
       transform="translate(380,1072)"
       d="m 0,0 h 19 l 8,2 1,2 -6,-1 H -2 l -8,1 V 2 Z"
       fill="#d19029"
       id="path660" />
    <path
       transform="translate(655,1147)"
       d="m 0,0 h 2 l 1,6 -5,10 -4,1 v -4 l 3,-5 z"
       fill="#800c05"
       id="path662" />
    <path
       transform="translate(501,1289)"
       d="M 0,0 H 11 L 17,4 16,7 9,3 H 3 l -9,5 1,-5 z"
       fill="#555d3a"
       id="path664" />
    <path
       transform="translate(1320,1079)"
       d="m 0,0 3,2 v 2 h 8 V 5 H 2 L 0,7 -2,6 -3,8 -5,7 v 3 h 5 l -1,2 H -6 L -7,11 V 2 l 6,1 z"
       fill="#f6b14b"
       id="path666" />
    <path
       transform="translate(1080,1036)"
       d="M 0,0 12,1 V 3 L 9,6 -7,8 V 6 L 0,4 -4,2 Z"
       fill="#f7c454"
       id="path668" />
    <path
       transform="translate(424,1060)"
       d="M 0,0 6,1 7,5 1,8 -5,7 -4,2 Z"
       fill="#f6cc4c"
       id="path670" />
    <path
       transform="translate(185,1046)"
       d="m 0,0 4,2 8,9 3,7 3,9 -2,4 L 10,14 4,5 Z"
       fill="#f9b44c"
       id="path672" />
    <path
       transform="translate(1068,1028)"
       d="m 0,0 h 27 v 1 l -41,3 1,-2 z"
       fill="#fcca58"
       id="path674" />
    <path
       transform="translate(775,185)"
       d="M 0,0 4,2 9,1 h 3 V 6 L 10,8 H 3 L 0,6 Z"
       fill="#f3b34a"
       id="path676" />
    <path
       transform="translate(1383,1082)"
       d="M 0,0 7,2 6,10 -5,5 Z"
       fill="#a11007"
       id="path678" />
    <path
       transform="translate(442,1162)"
       d="m 0,0 3,1 6,10 2,7 V 35 L 9,34 V 26 L 8,17 2,4 Z"
       fill="#e8af42"
       id="path680" />
    <path
       transform="translate(830,1166)"
       d="M 0,0 H 8 L 10,2 9,5 11,6 5,8 H 3 l -2,2 z"
       fill="#e8b243"
       id="path682" />
    <path
       transform="translate(1201,1124)"
       d="M 0,0 3,1 30,2 V 3 L 11,4 5,5 H -5 V 2 Z"
       fill="#f6c44a"
       id="path684" />
    <path
       transform="translate(1177,1356)"
       d="m 0,0 4,5 1,4 -9,1 -2,-2 1,-5 h 4 z"
       fill="#6c8c2b"
       id="path686" />
    <path
       transform="translate(1124,1339)"
       d="m 0,0 v 3 l -5,3 -1,7 2,6 1,2 5,2 7,1 v 1 H 0 L -5,23 -8,18 -9,8 -5,3 Z"
       fill="#c09727"
       id="path688" />
    <path
       transform="translate(683,1312)"
       d="M 0,0 2,1 1,12 H -2 L -8,3 Z"
       fill="#474952"
       id="path690" />
    <path
       transform="translate(1434,1174)"
       d="M 0,0 H 6 L 7,1 56,2 V 3 H 2 V 1 Z"
       fill="#cb9b26"
       id="path692" />
    <path
       transform="translate(1129,1313)"
       d="m 0,0 h 7 v 2 l -7,1 -4,4 -5,2 -1,8 h -1 V 9 l 5,-6 z"
       fill="#be8327"
       id="path694" />
    <path
       transform="translate(822,512)"
       d="m 0,0 h 2 v 2 l 5,2 9,2 1,2 H 0 Z"
       fill="#fccc5c"
       id="path696" />
    <path
       transform="translate(829,184)"
       d="M 0,0 H 2 V 7 L 0,9 H -5 L -10,5 V 1 h 3 l 1,4 5,-3 z"
       fill="#f7bd51"
       id="path698" />
    <path
       transform="translate(1230,1076)"
       d="m 0,0 h 16 l 5,1 V 3 H 19 V 5 H 11 L 4,4 Z"
       fill="#fccc54"
       id="path700" />
    <path
       transform="translate(1106,1055)"
       d="m 0,0 5,4 5,9 v 2 l -2,1 v 2 H 6 L 2,10 1,3 Z"
       fill="#fcc959"
       id="path702" />
    <path
       transform="translate(145,1048)"
       d="m 0,0 5,3 2,3 1,5 v 9 L 6,18 1,5 Z"
       fill="#fcc055"
       id="path704" />
    <path
       transform="translate(1321,1312)"
       d="m 0,0 h 6 v 2 h -7 l -1,4 -4,1 -6,-1 1,-3 5,-2 z"
       fill="#5f7612"
       id="path706" />
    <path
       transform="translate(250,1358)"
       d="M 0,0 3,1 V 3 L 7,4 3,6 H -13 L -9,4 -4,3 V 1 Z"
       fill="#55720d"
       id="path708" />
    <path
       transform="translate(1262,1355)"
       d="M 0,0 H 7 V 7 L 1,9 -3,8 -1,5 Z"
       fill="#401316"
       id="path710" />
    <path
       transform="translate(511,1292)"
       d="M 0,0 7,3 9,6 8,12 3,18 1,17 6,11 2,5 -2,3 V 1 Z"
       fill="#a49029"
       id="path712" />
    <path
       transform="translate(519,1066)"
       d="M 0,0 3,1 V 3 L -3,5 H -18 V 2 L -3,1 Z"
       fill="#fddc54"
       id="path714" />
    <path
       transform="translate(280,1067)"
       d="M 0,0 7,1 3,4 h -17 l -2,-3 z"
       fill="#fddc54"
       id="path716" />
    <path
       transform="translate(410,1188)"
       d="m 0,0 h 7 l 6,5 V 9 L 8,10 5,7 6,2 0,1 Z"
       fill="#f9d650"
       id="path718" />
    <path
       transform="translate(1501,1169)"
       d="M 0,0 H 1 V 12 L 0,13 H -24 V 12 L -6,11 -2,8 -3,4 0,3 Z"
       fill="#fcc858"
       id="path720" />
    <path
       transform="translate(1275,1143)"
       d="M 0,0 1,4 H 3 V 2 L 6,3 V 17 L 4,20 V 10 H 2 L 1,14 0,11 Z"
       fill="#f8b24d"
       id="path722" />
    <path
       transform="translate(250,1074)"
       d="m 0,0 h 21 v 1 l 6,1 -1,2 H 6 L -1,3 -2,1 Z"
       fill="#fccb5a"
       id="path724" />
    <path
       transform="translate(967,1361)"
       d="M 0,0 H 3 L 6,3 34,4 V 2 h 3 v 2 h 9 V 5 H 4 L 0,1 Z"
       fill="#424342"
       id="path726" />
    <path
       transform="translate(358,1346)"
       d="m 0,0 h 1 v 14 l 2,1 v 2 l 3,1 H -4 l -3,-2 2,-4 h 4 z"
       fill="#c89c26"
       id="path728" />
    <path
       transform="translate(359,1314)"
       d="M 0,0 H 5 L 4,3 0,4 -1,9 -5,8 -6,5 H -8 L -9,2 -1,1 Z"
       fill="#c39e24"
       id="path730" />
    <path
       transform="translate(483,1079)"
       d="M 0,0 H 31 V 1 H 10 V 4 L 2,5 Z"
       fill="#af1108"
       id="path732" />
    <path
       transform="translate(907,523)"
       d="M 0,0 3,2 4,13 3,14 H -2 V 5 Z"
       fill="#fcc958"
       id="path734" />
    <path
       transform="translate(117,1036)"
       d="M 0,0 21,1 V 4 5 H 14 L 13,4 0,3 Z"
       fill="#fbc252"
       id="path736" />
    <path
       transform="translate(742,385)"
       d="M 0,0 5,1 7,5 16,8 15,10 -1,5 -3,4 V 2 Z"
       fill="#424341"
       id="path738" />
    <path
       transform="translate(754,1345)"
       d="M 0,0 H 3 L 2,9 -1,11 H -5 L -4,6 Z"
       fill="#222364"
       id="path740" />
    <path
       transform="translate(1236,1074)"
       d="m 0,0 h 14 l 9,4 4,2 V 8 L 17,4 7,3 H 1 Z"
       fill="#e2a73b"
       id="path742" />
    <path
       transform="translate(153,1059)"
       d="m 0,0 2,4 1,7 V 23 L 1,24 -1,13 Z"
       fill="#fcc859"
       id="path744" />
    <path
       transform="translate(730,185)"
       d="m 0,0 h 3 l 3,3 7,-1 1,2 -2,4 H 6 L 1,4 Z"
       fill="#f6b54f"
       id="path746" />
    <path
       transform="translate(278,1359)"
       d="m 0,0 7,4 h 11 l 5,-3 h 5 L 23,5 18,7 H 7 L 1,3 Z"
       fill="#4a3c34"
       id="path748" />
    <path
       transform="translate(1029,1314)"
       d="M 0,0 H 29 L 28,4 V 1 L 6,2 5,5 0,4 Z"
       fill="#50513d"
       id="path750" />
    <path
       transform="translate(422,1142)"
       d="m 0,0 2,1 -7,5 5,6 -15,-2 V 9 L -7,8 -12,4 -1,1 Z"
       fill="#f6bb4e"
       id="path752" />
    <path
       transform="translate(1113,1069)"
       d="M 0,0 3,2 9,14 12,16 5,15 0,6 Z"
       fill="#fcb550"
       id="path754" />
    <path
       transform="translate(1238,1352)"
       d="m 0,0 5,5 2,4 8,2 h 6 l 2,2 -1,1 H 13 L 6,10 0,3 Z"
       fill="#556322"
       id="path756" />
    <path
       transform="translate(560,1322)"
       d="M 0,0 2,1 3,14 2,21 1,36 H 0 Z"
       fill="#434347"
       id="path758" />
    <path
       transform="translate(391,1315)"
       d="M 0,0 H 3 L 2,7 -2,8 -4,12 -6,4 Z"
       fill="#503a26"
       id="path760" />
    <path
       transform="translate(116,1172)"
       d="M 0,0 H 20 L 19,2 6,4 H 1 Z"
       fill="#630a06"
       id="path762" />
    <path
       transform="translate(1177,1146)"
       d="m 0,0 h 1 l 1,11 2,5 -1,4 -6,-9 V 4 h 2 z"
       fill="#fcd752"
       id="path764" />
    <path
       transform="translate(1381,1091)"
       d="m 0,0 h 3 l 1,4 -6,3 -5,7 h -1 l 1,-7 5,-6 z"
       fill="#fcd151"
       id="path766" />
    <path
       transform="translate(1125,1050)"
       d="m 0,0 h 1 l 1,10 v 17 l -5,-5 1,-3 2,1 z"
       fill="#9e0f07"
       id="path768" />
    <path
       transform="translate(798,1141)"
       d="M 0,0 H 9 L 5,2 2,4 0,16 H -1 L -2,11 -3,9 h -3 l 1,-3 2,-2 3,1 z"
       fill="#e3a73b"
       id="path770" />
    <path
       transform="translate(396,1074)"
       d="M 0,0 9,1 V 5 L 4,6 2,4 5,3 h -19 l -2,-2 z"
       fill="#fdd954"
       id="path772" />
    <path
       transform="translate(1200,1316)"
       d="M 0,0 H 5 L 6,4 5,6 0,8 -2,12 V 1 Z"
       fill="#4c1b1a"
       id="path774" />
    <path
       transform="translate(310,1313)"
       d="m 0,0 7,3 6,8 v 3 H 11 L 9,8 4,6 -2,3 V 1 Z"
       fill="#617517"
       id="path776" />
    <path
       transform="translate(641,1160)"
       d="M 0,0 3,3 2,7 0,8 H -7 V 4 h 3 V 2 Z"
       fill="#fdda54"
       id="path778" />
    <path
       transform="translate(362,1140)"
       d="M 0,0 6,1 7,5 5,6 H -5 l 1,-4 z"
       fill="#fbd451"
       id="path780" />
    <path
       transform="translate(1121,1029)"
       d="M 0,0 H 10 V 6 L 8,8 7,6 5,9 3,2 2,7 1,3 -1,1 Z"
       fill="#f5983a"
       id="path782" />
    <path
       transform="translate(590,1326)"
       d="M 0,0 H 3 L 2,13 0,15 -2,14 V 4 Z"
       fill="#0f2b5f"
       id="path784" />
    <path
       transform="translate(475,1073)"
       d="M 0,0 13,1 V 3 L 16,4 15,5 7,6 5,7 4,4 0,3 Z"
       fill="#fcbe55"
       id="path786" />
    <path
       transform="translate(426,1046)"
       d="M 0,0 H 11 L 10,2 9,3 H 0 L -2,2 V 5 H -8 L -9,3 Z"
       fill="#fcca59"
       id="path788" />
    <path
       transform="translate(488,1090)"
       d="M 0,0 2,1 3,10 2,32 H 1 L 0,15 Z"
       fill="#fedd54"
       id="path790" />
    <path
       transform="translate(267,1353)"
       d="m 0,0 h 1 v 11 l -3,1 -8,-3 3,-3 h 6 z"
       fill="#44342e"
       id="path792" />
    <path
       transform="translate(1108,1346)"
       d="M 0,0 H 5 L 4,5 1,6 -3,9 -8,11 -2,2 Z"
       fill="#6e7223"
       id="path794" />
    <path
       transform="translate(1498,1166)"
       d="M 0,0 4,1 3,6 1,7 0,10 2,11 H -1 L -2,7 -6,5 -3,2 -1,3 Z"
       fill="#f6b14b"
       id="path796" />
    <path
       transform="translate(300,1144)"
       d="m 0,0 h 1 l 1,5 v 9 L 1,24 0,22 -3,23 v -7 h 2 z"
       fill="#fcb34e"
       id="path798" />
    <path
       transform="translate(754,1077)"
       d="m 0,0 9,1 3,1 V 4 H 3 L -7,2 V 1 Z"
       fill="#fccb53"
       id="path800" />
    <path
       transform="translate(1100,1358)"
       d="M 0,0 3,1 4,5 -6,9 h -8 L -17,7 -3,6 -1,5 Z"
       fill="#67652a"
       id="path802" />
    <path
       transform="translate(539,1166)"
       d="M 0,0 H 8 L 9,1 V 6 H 4 V 9 L 1,6 2,2 H 0 Z"
       fill="#f7b14b"
       id="path804" />
    <path
       transform="translate(426,1053)"
       d="M 0,0 H 6 L 2,2 H 0 v 5 l -7,1 -2,1 2,-4 5,-4 z"
       fill="#a51007"
       id="path806" />
    <path
       transform="translate(982,1314)"
       d="M 0,0 H 22 L 20,2 14,3 13,5 8,4 V 2 L 0,1 Z"
       fill="#4c4a44"
       id="path808" />
    <path
       transform="translate(741,1140)"
       d="M 0,0 2,4 V 16 L -1,17 -2,12 -1,7 -2,5 Z"
       fill="#fdb551"
       id="path810" />
    <path
       transform="translate(1137,1314)"
       d="M 0,0 H 2 L 4,11 3,15 1,14 -1,6 Z"
       fill="#fdfffe"
       id="path812" />
    <path
       transform="translate(420,1314)"
       d="M 0,0 H 27 V 1 L 7,2 6,4 0,3 Z"
       fill="#af8d24"
       id="path814" />
    <path
       transform="translate(1321,1083)"
       d="M 0,0 6,1 5,4 1,7 -6,6 V 3 l 5,-1 z"
       fill="#fccf58"
       id="path816" />
    <path
       transform="translate(1313,1074)"
       d="M 0,0 H 11 V 1 L 4,2 7,5 6,8 H 1 L 0,7 Z"
       fill="#fcc858"
       id="path818" />
    <path
       transform="translate(703,395)"
       d="m 0,0 9,2 2,3 -1,1 2,2 H 6 L 3,5 4,4 0,2 Z"
       fill="#fdb551"
       id="path820" />
    <path
       transform="translate(903,1314)"
       d="M 0,0 H 27 V 1 L 4,2 6,5 H 1 Z"
       fill="#0d2967"
       id="path822" />
    <path
       transform="translate(1127,1126)"
       d="M 0,0 H 2 L 1,18 H 0 V 8 h -2 l -2,4 -1,-2 z"
       fill="#8b0d06"
       id="path824" />
    <path
       transform="translate(701,374)"
       d="m 0,0 h 8 l 7,1 -3,3 H 2 Z"
       fill="#fdb551"
       id="path826" />
    <path
       transform="translate(684,1346)"
       d="M 0,0 3,1 2,9 -2,13 V 11 L -4,10 -2,7 Z"
       fill="#504f3f"
       id="path828" />
    <path
       transform="translate(896,1166)"
       d="M 0,0 H 6 L 7,5 2,8 -2,6 H 1 V 3 L -2,1 Z"
       fill="#f9b14c"
       id="path830" />
    <path
       transform="translate(364,1315)"
       d="M 0,0 H 2 V 6 L -1,8 H -5 L -4,2 Z"
       fill="#4b311e"
       id="path832" />
    <path
       transform="translate(650,1155)"
       d="m 0,0 1,4 -5,6 H -6 L -8,5 -5,2 0,3 Z"
       fill="#f6c652"
       id="path834" />
    <path
       transform="translate(582,1078)"
       d="M 0,0 8,1 7,5 0,6 -1,1 Z"
       fill="#ba1209"
       id="path836" />
    <path
       transform="translate(691,202)"
       d="m 0,0 h 3 l -4,8 h -2 v 2 h -2 l -1,3 -1,-4 z"
       fill="#424342"
       id="path838" />
    <path
       transform="translate(718,177)"
       d="M 0,0 H 5 L 2,5 -5,8 -7,7 -2,2 Z"
       fill="#122f6e"
       id="path840" />
    <path
       transform="translate(263,1339)"
       d="M 0,0 H 6 L 5,10 H 4 V 5 l -5,1 z"
       fill="#5c6d19"
       id="path842" />
    <path
       transform="translate(561,1312)"
       d="M 0,0 H 7 L 12,2 8,5 3,6 2,1 Z"
       fill="#4e4c43"
       id="path844" />
    <path
       transform="translate(1284,1148)"
       d="m 0,0 h 1 v 11 l -2,3 h -3 l 1,-8 z"
       fill="#ba1209"
       id="path846" />
    <path
       transform="translate(1421,1088)"
       d="M 0,0 H 4 L 6,5 8,4 7,10 H 4 L 0,2 Z"
       fill="#facc4f"
       id="path848" />
    <path
       transform="translate(1323,1079)"
       d="M 0,0 H 19 V 1 L 8,2 5,4 H 0 L -1,1 Z"
       fill="#ad1108"
       id="path850" />
    <path
       transform="translate(298,1074)"
       d="M 0,0 H 4 V 3 L -3,4 H -22 V 3 L -7,2 Z"
       fill="#f9b850"
       id="path852" />
    <path
       transform="translate(190,1054)"
       d="m 0,0 4,2 4,9 v 3 H 6 L 0,3 Z"
       fill="#ab1007"
       id="path854" />
    <path
       transform="translate(117,1039)"
       d="m 0,0 h 13 l 1,2 H 6 V 4 L 1,5 Z"
       fill="#fddc54"
       id="path856" />
    <path
       transform="translate(1047,1035)"
       d="m 0,0 m -2,1 5,1 -4,3 -8,5 h -2 V 7 Z"
       fill="#fba445"
       id="path858" />
    <path
       transform="translate(749,1315)"
       d="M 0,0 4,2 8,8 9,13 5,11 1,3 Z"
       fill="#494844"
       id="path860" />
    <path
       transform="translate(1261,1314)"
       d="M 0,0 H 6 L 7,1 V 6 H 0 Z"
       fill="#51700b"
       id="path862" />
    <path
       transform="translate(754,205)"
       d="M 0,0 5,3 7,4 6,7 H 0 L -3,3 h 2 z"
       fill="#f7b84e"
       id="path864" />
    <path
       transform="translate(421,1212)"
       d="m 0,0 v 3 l -5,6 -5,2 -3,2 -3,-1 3,-1 V 9 l 9,-5 z"
       fill="#25303e"
       id="path866" />
    <path
       transform="translate(323,1360)"
       d="M 0,0 3,1 2,5 -6,7 -13,5 -14,3 -4,5 V 3 l 3,-1 z"
       fill="#4f4b38"
       id="path868" />
    <path
       transform="translate(682,1338)"
       d="m 0,0 2,3 v 7 l -2,7 -2,3 -2,-1 3,-9 z"
       fill="#fbfcf8"
       id="path870" />
    <path
       transform="translate(680,1323)"
       d="M 0,0 4,1 5,6 2,8 -4,1 Z"
       fill="#1e315b"
       id="path872" />
    <path
       transform="translate(933,1314)"
       d="M 0,0 H 26 L 25,2 H 3 V 5 L 0,4 Z"
       fill="#213257"
       id="path874" />
    <path
       transform="translate(1230,1173)"
       d="m 0,0 6,3 v 2 l 9,3 1,2 L 7,7 4,5 h -6 z"
       fill="#e0982f"
       id="path876" />
    <path
       transform="translate(438,1106)"
       d="m 0,0 h 2 v 13 l -2,2 -2,3 z"
       fill="#fcb952"
       id="path878" />
    <path
       transform="translate(1396,1073)"
       d="M 0,0 H 5 L 9,3 H -10 V 1 Z"
       fill="#fdd555"
       id="path880" />
    <path
       transform="translate(1137,1361)"
       d="m 0,0 v 3 l -3,1 v 2 l -8,-1 -4,-2 2,-1 h 9 z"
       fill="#722e16"
       id="path882" />
    <path
       transform="translate(1231,1360)"
       d="M 0,0 4,1 V 5 L 2,6 H -4 V 3 L 0,2 Z"
       fill="#657517"
       id="path884" />
    <path
       transform="translate(455,1359)"
       d="M 0,0 4,1 V 3 H -6 V 1 Z m -21,3 h 15 v 1 h -15 z"
       fill="#d0a42f"
       id="path886" />
    <path
       transform="translate(621,353)"
       d="m 0,0 h 3 l 1,22 2,4 -4,1 V 1 Z"
       fill="#fcc658"
       id="path888" />
    <path
       transform="translate(529,343)"
       d="M 0,0 2,1 V 4 H 6 L 7,2 5,11 H 2 Z"
       fill="#fccd59"
       id="path890" />
    <path
       transform="translate(645,1344)"
       d="m 0,0 4,1 6,8 H 7 V 7 L 2,5 0,4 Z"
       fill="#303f4f"
       id="path892" />
    <path
       transform="translate(449,1292)"
       d="m 0,0 2,3 v 8 L 0,16 -2,15 0,8 -2,4 -6,1 -1,2 Z"
       fill="#b39427"
       id="path894" />
    <path
       transform="translate(710,1076)"
       d="m 0,0 2,2 -6,3 -6,5 -3,5 -1,-3 7,-8 z"
       fill="#f8a342"
       id="path896" />
    <path
       transform="translate(425,1155)"
       d="M 0,0 6,1 14,7 13,10 6,4 0,1 Z"
       fill="#f0ad45"
       id="path898" />
    <path
       transform="translate(801,1143)"
       d="M 0,0 H 1 V 12 L 0,10 h -2 l -1,2 1,-10 z"
       fill="#ba1209"
       id="path900" />
    <path
       transform="translate(453,1059)"
       d="M 0,0 H 2 L 3,3 V 13 L 1,17 0,15 Z"
       fill="#fcb550"
       id="path902" />
    <path
       transform="translate(488,1314)"
       d="M 0,0 H 11 L 8,4 H 1 Z"
       fill="#4b4f3d"
       id="path904" />
    <path
       transform="translate(1041,1291)"
       d="M 0,0 H 2 V 2 L 4,3 -3,4 -5,9 H -6 L -5,1 Z"
       fill="#619131"
       id="path906" />
    <path
       transform="translate(435,1290)"
       d="M 0,0 H 12 L 14,2 13,5 8,3 0,2 Z"
       fill="#13337a"
       id="path908" />
    <path
       transform="translate(438,1117)"
       d="m 0,0 h 1 v 7 l -5,10 h -2 l 2,-5 1,-5 h 2 z"
       fill="#c9a42a"
       id="path910" />
    <path
       transform="translate(740,1119)"
       d="M 0,0 2,1 V 7 H -8 l 2,-1 1,-2 h 3 z"
       fill="#fedd54"
       id="path912" />
    <path
       transform="translate(1075,1043)"
       d="M 0,0 4,2 -3,5 -8,9 -9,7 -5,2 Z"
       fill="#f99b3e"
       id="path914" />
    <path
       transform="translate(62,1036)"
       d="M 0,0 2,2 V 5 L 6,7 4,8 h -8 l 2,-1 z"
       fill="#f9b14c"
       id="path916" />
    <path
       transform="translate(843,1319)"
       d="M 0,0 7,1 -1,9 V 4 Z"
       fill="#2a3952"
       id="path918" />
    <path
       transform="translate(369,1074)"
       d="m 0,0 v 3 l -10,4 -7,5 2,-4 10,-6 z"
       fill="#f7a442"
       id="path920" />
    <path
       transform="translate(632,1064)"
       d="m 0,0 h 1 v 12 h 2 v 2 H -2 V 8 Z"
       fill="#ecaa41"
       id="path922" />
    <path
       transform="translate(1132,1068)"
       d="M 0,0 H 1 L 2,7 V 17 L -1,16 V 7 Z"
       fill="#f9af4a"
       id="path924" />
    <path
       transform="translate(1087,1029)"
       d="m 0,0 h 9 l 7,2 3,1 1,3 L 9,3 0,1 Z"
       fill="#fcac4a"
       id="path926" />
    <path
       transform="translate(742,571)"
       d="M 0,0 2,4 V 6 H -9 l 2,-3 h 5 z"
       fill="#faca58"
       id="path928" />
    <path
       transform="translate(803,386)"
       d="M 0,0 9,2 V 3 H 4 L 3,7 -1,6 Z"
       fill="#424342"
       id="path930" />
    <path
       transform="translate(368,1312)"
       d="M 0,0 11,1 14,3 13,6 9,3 H 2 L -1,1 Z"
       fill="#77912b"
       id="path932" />
    <path
       transform="translate(416,1050)"
       d="m 0,0 h 2 v 3 l -5,5 -4,3 1,-5 5,-5 z"
       fill="#fcc557"
       id="path934" />
    <path
       transform="translate(795,206)"
       d="m 0,0 h 5 l 1,5 5,1 V 7 H 5 L 0,3 Z"
       fill="#e7a93e"
       id="path936" />
    <path
       transform="translate(416,1359)"
       d="M 0,0 H 9 V 2 L 4,3 H -7 l 3,-2 4,1 z"
       fill="#edb045"
       id="path938" />
    <path
       transform="translate(1491,1172)"
       d="M 0,0 H 5 L 6,5 H -1 Z"
       fill="#930e06"
       id="path940" />
    <path
       transform="translate(432,1080)"
       d="M 0,0 6,1 5,4 7,6 -1,7 -2,5 2,3 H 0 Z"
       fill="#fcd257"
       id="path942" />
    <path
       transform="translate(197,1062)"
       d="M 0,0 1,2 H 3 L 6,11 4,15 0,3 Z"
       fill="#fba143"
       id="path944" />
    <path
       transform="translate(424,1048)"
       d="M 0,0 11,1 V 4 H 3 V 2 H 0 Z"
       fill="#fdb551"
       id="path946" />
    <path
       transform="translate(300,1346)"
       d="M 0,0 H 2 V 8 H -1 L -2,1 Z"
       fill="#fdfffe"
       id="path948" />
    <path
       transform="translate(1101,1314)"
       d="m 0,0 5,1 5,4 2,4 -1,3 L 7,6 V 4 L 2,2 Z"
       fill="#59553d"
       id="path950" />
    <path
       transform="translate(442,1162)"
       d="m 0,0 3,1 6,10 v 2 L 6,12 2,4 Z"
       fill="#f0b64a"
       id="path952" />
    <path
       transform="translate(1433,1077)"
       d="m 0,0 2,1 -6,7 -5,1 -2,-5 5,2 z"
       fill="#fbb24d"
       id="path954" />
    <path
       transform="translate(247,1077)"
       d="m 0,0 2,2 1,3 7,1 V 7 L 0,8 -2,3 Z"
       fill="#f98c35"
       id="path956" />
    <path
       transform="translate(408,1077)"
       d="M 0,0 4,1 5,6 -1,5 -2,2 h 2 z"
       fill="#fdcd50"
       id="path958" />
    <path
       transform="translate(1314,1075)"
       d="M 0,0 H 10 L 9,5 4,3 Z"
       fill="#fcad4c"
       id="path960" />
    <path
       transform="translate(1249,1313)"
       d="M 0,0 5,1 1,3 -6,7 -8,6 -3,1 Z"
       fill="#587417"
       id="path962" />
    <path
       transform="translate(75,1166)"
       d="M 0,0 H 2 V 5 L 1,6 H -11 V 5 L 0,4 Z"
       fill="#d7992b"
       id="path964" />
    <path
       transform="translate(305,1167)"
       d="M 0,0 H 8 V 4 H 0 V 1 Z"
       fill="#f4b14a"
       id="path966" />
    <path
       transform="translate(1058,1031)"
       d="M 0,0 H 6 L 3,2 h -5 l -1,3 -5,1 1,-3 z"
       fill="#fcac4b"
       id="path968" />
    <path
       transform="translate(1169,1346)"
       d="M 0,0 2,1 1,9 -3,6 V 1 Z"
       fill="#605430"
       id="path970" />
    <path
       transform="translate(1375,1173)"
       d="M 0,0 8,1 6,4 H -9 V 3 L 1,2 Z"
       fill="#d09b29"
       id="path972" />
    <path
       transform="translate(1441,1089)"
       d="M 0,0 5,2 3,3 2,20 H 1 Z"
       fill="#fcad4b"
       id="path974" />
    <path
       transform="translate(763,1074)"
       d="M 0,0 7,1 13,4 12,6 0,2 Z"
       fill="#cb972b"
       id="path976" />
    <path
       transform="translate(1168,1356)"
       d="M 0,0 1,4 -3,9 H -5 L -4,5 -3,2 Z"
       fill="#4d2e23"
       id="path978" />
    <path
       transform="translate(358,1359)"
       d="M 0,0 H 9 L 8,4 H 3 V 2 L 0,1 Z"
       fill="#5b6224"
       id="path980" />
    <path
       transform="translate(1138,1347)"
       d="M 0,0 4,1 V 7 H 0 Z"
       fill="#fdfffe"
       id="path982" />
    <path
       transform="translate(241,1293)"
       d="M 0,0 6,2 5,4 -4,5 -2,1 Z"
       fill="#597413"
       id="path984" />
    <path
       transform="translate(1230,1163)"
       d="M 0,0 4,2 3,6 -1,7 Z"
       fill="#f8cf4e"
       id="path986" />
    <path
       transform="translate(1116,1069)"
       d="M 0,0 H 5 L 7,3 6,7 1,2 Z"
       fill="#fbd351"
       id="path988" />
    <path
       transform="translate(424,1050)"
       d="M 0,0 H 3 V 2 L 5,3 -3,6 V 3 1 Z"
       fill="#f99038"
       id="path990" />
    <path
       transform="translate(612,1042)"
       d="M 0,0 5,1 2,4 h -7 l 1,-3 z"
       fill="#fcc959"
       id="path992" />
  </g>
</svg>
